<svg x="0" y="0" width="2154" height="1080" viewBox="0 0 3015.6 1512" xmlns="http://www.w3.org/2000/svg" xmlns:xlink="http://www.w3.org/1999/xlink" xmlns:fi="http://pattern.flaticon.com/"><rect x="0px" y="0px" width="100%" height="100%" opacity="1" fill="#ffffff"/><defs><g transform="matrix(0.5050762891769409 -0.050507623702287674 0.050507623702287674 0.5050762891769409 220.15817260742188 296.9866027832031)" id="L1_0"><path d="M34.685,22.808c0,0,12.342-7.316,20.178,3.022c0,0,2.032,2.35,0.47,4.6   c-1.537,2.212-4.968,1.742-6.676-0.603C47.116,27.712,43.403,25.027,34.685,22.808z" fill="#88c057"/><path d="M34.685,22.808c0,0,7.506-12.152-2.145-19.301c0,0-3.185-2.863-6.062-1.844   c-2.676,0.947-2.746,4.678-0.284,6.089C28.892,9.299,32.588,13.163,34.685,22.808z" fill="#88c057"/><path d="M54.604,26.466c0,0,0.067,0.086,0.155,0.205c0.257-0.23,0.506-0.478,0.732-0.768   c2.084-2.67,0.414-4.736,0.414-4.736c-6.186-9.306-20.584,0.807-20.584,0.807c0.693,0.048,1.341,0.11,1.968,0.176   C41.406,20.648,49.11,19.218,54.604,26.466z" fill="#88c057"/><path d="M32.541,3.507c7.445,5.514,4.681,14.002,3.028,17.596c0.003,0.081,0.009,0.154,0.012,0.235   c0,0,10.275-14.236,1.555-19.836c0,0-2.779-2.377-5.999-0.74c-0.553,0.281-1.03,0.645-1.428,1.056   C31.32,2.412,32.541,3.507,32.541,3.507z" fill="#a4e869"/><path d="M50.459,6.131c-3.647-2.363-8.276,1.205-8.276,1.205c-0.768,0.92-1.465,1.91-2.108,2.927   c-0.638,4.649-3.667,9.674-5.173,11.934c-0.089,0.314-0.164,0.589-0.216,0.787c1.745-1.172,6.828-4.343,11.824-5.164   c1.24-0.822,2.422-1.725,3.451-2.705C55.476,9.864,50.459,6.131,50.459,6.131z" fill="#659c35"/><path d="M34.685,22.808c0,0,12.342-7.316,20.178,3.022c0,0,2.032,2.35,0.47,4.6   c-1.537,2.212-4.968,1.742-6.676-0.603C47.116,27.712,43.403,25.027,34.685,22.808z" fill="#a4e869"/><g><path d="M35.376,21.701c-0.281,0.547-0.472,0.857-0.472,0.857s0.468-0.276,1.272-0.643    C35.915,21.843,35.652,21.772,35.376,21.701z" fill="#f2681c"/><path d="M41.809,28.277c0.421-1.172,0.395-2.334,0.132-3.429c-1.879-0.789-4.186-1.565-7.037-2.29    c-0.691-3.177-1.556-5.716-2.501-7.762c-1.303-0.453-2.728-0.614-4.17-0.096C23.708,16.326,3.81,44.955,0.089,54.937    c-0.35,0.939,0.387,1.675,1.325,1.325C11.396,52.541,40.183,32.801,41.809,28.277z" fill="#ed8f20"/></g><g><path d="M8.236,46.857c-0.674-0.322-1.329-0.715-1.947-1.168c-0.446-0.328-1.071-0.23-1.397,0.215    s-0.23,1.071,0.215,1.397c0.718,0.527,1.481,0.985,2.267,1.36c0.139,0.066,0.286,0.098,0.431,0.098    c0.373,0,0.731-0.21,0.903-0.569C8.945,47.692,8.734,47.094,8.236,46.857z" fill="#dd7017"/><path d="M39.161,27.824c-2.046-0.78-3.945-2.182-5.642-4.167c-0.359-0.42-0.99-0.469-1.41-0.11    c-0.42,0.359-0.469,0.99-0.11,1.41c1.917,2.242,4.087,3.836,6.45,4.737c0.117,0.044,0.237,0.066,0.356,0.066    c0.403,0,0.782-0.246,0.935-0.645C39.936,28.599,39.677,28.021,39.161,27.824z" fill="#dd7017"/><g><path d="M22.722,19.948c0.389,0.101,0.701,0.428,0.748,0.854c0.179,1.632,1.022,3.747,2.505,4.792     c0.451,0.318,0.559,0.942,0.24,1.394c-0.194,0.276-0.504,0.423-0.818,0.423c-0.199,0-0.4-0.059-0.576-0.183     c-2.001-1.411-2.996-3.947-3.284-5.847" fill="#dd7017"/><path d="M24.821,27.228c0.175,0.124,0.376,0.183,0.576,0.183c0.314,0,0.624-0.147,0.818-0.423     c0.318-0.452,0.211-1.075-0.24-1.394c-1.482-1.046-2.326-3.161-2.505-4.792c-0.047-0.425-0.359-0.753-0.748-0.854     c-0.385,0.457-0.779,0.931-1.185,1.432C21.825,23.281,22.82,25.817,24.821,27.228z" fill="#dd7017"/></g><g><path d="M30.348,38.578c-1.89-0.306-4.369-1.302-5.758-3.271c-0.318-0.451-0.21-1.075,0.241-1.394     c0.45-0.318,1.075-0.21,1.394,0.241c1.045,1.481,3.16,2.326,4.792,2.505c0.438,0.048,0.766,0.375,0.856,0.782" fill="#dd7017"/><path d="M31.018,36.659c-1.633-0.179-3.748-1.023-4.792-2.505c-0.318-0.451-0.944-0.56-1.394-0.241     c-0.452,0.318-0.56,0.942-0.241,1.394c1.389,1.969,3.868,2.965,5.758,3.271c0.519-0.383,1.028-0.761,1.525-1.136     C31.784,37.034,31.455,36.707,31.018,36.659z" fill="#dd7017"/></g><g><path d="M14.756,30.41c0.399,0.094,0.72,0.424,0.768,0.856c0.112,1.025,0.635,2.349,1.549,2.995     c0.451,0.318,0.559,0.942,0.24,1.394c-0.195,0.276-0.504,0.423-0.818,0.423c-0.199,0-0.4-0.059-0.576-0.183     c-1.328-0.937-2.04-2.56-2.299-3.865" fill="#dd7017"/><path d="M15.92,35.895c0.175,0.124,0.376,0.183,0.576,0.183c0.314,0,0.623-0.147,0.818-0.423     c0.318-0.451,0.211-1.075-0.24-1.394c-0.915-0.646-1.437-1.969-1.549-2.995c-0.047-0.433-0.368-0.763-0.768-0.856     c-0.379,0.535-0.757,1.075-1.136,1.62C13.88,33.335,14.592,34.958,15.92,35.895z" fill="#dd7017"/></g><g><path d="M18.024,47.047c-1.357-0.177-3.244-0.888-4.285-2.365c-0.318-0.452-0.211-1.075,0.24-1.394     c0.452-0.32,1.076-0.21,1.394,0.24c0.646,0.915,1.969,1.437,2.994,1.549c0.549,0.06,0.945,0.554,0.885,1.103     c-0.003,0.031-0.02,0.057-0.026,0.087" fill="#dd7017"/><path d="M18.367,45.078c-1.025-0.112-2.349-0.635-2.994-1.549c-0.318-0.451-0.941-0.56-1.394-0.24     c-0.451,0.318-0.559,0.942-0.24,1.394c1.042,1.477,2.928,2.188,4.285,2.365c0.4-0.257,0.801-0.518,1.202-0.779     c0.006-0.03,0.023-0.056,0.026-0.087C19.313,45.633,18.916,45.138,18.367,45.078z" fill="#dd7017"/></g></g></g><g transform="matrix(0.4480457007884979 0.08400855958461761 -0.08400855958461761 0.4480457007884979 3.598907947540283 26.102359771728516)" id="L1_2"><path d="M36.486,12.899l-5.089-0.419l1.884-4.746c0.308-0.775,0.696-1.499,1.139-2.177   c-2.955-1.3-6.219-2.027-9.655-2.027c-13.255,0-24,10.745-24,24s10.745,24,24,24s24-10.745,24-24c0-6.059-2.25-11.59-5.954-15.813   C40.889,12.643,38.719,13.083,36.486,12.899z" fill="#ed8f20"/><circle cx="38" cy="18" r="2" fill="#ef771d"/><circle cx="43" cy="29" r="2" fill="#ef771d"/><circle cx="43" cy="23" r="2" fill="#ef771d"/><circle cx="37" cy="27" r="2" fill="#ef771d"/><circle cx="38" cy="34" r="2" fill="#ef771d"/><circle cx="20" cy="10" r="2" fill="#ef771d"/><circle cx="13" cy="13" r="2" fill="#ef771d"/><g><path d="M27.765,11.529c0,0,4.25,0.7,5.4,3.6" fill="#ed8f20"/><path d="M33.165,16.13c-0.397,0-0.773-0.239-0.93-0.632c-0.925-2.331-4.599-2.976-4.635-2.982    c-0.544-0.092-0.912-0.606-0.821-1.151c0.09-0.543,0.603-0.912,1.147-0.822c0.197,0.032,4.824,0.831,6.168,4.218    c0.203,0.513-0.048,1.095-0.561,1.298C33.413,16.107,33.288,16.13,33.165,16.13z" fill="#9b6026"/></g><g><path d="M28.365,14.529c1.037-1.14,2.345-2.025,3.787-2.567" fill="#ed8f20"/><path d="M28.364,15.529c-0.24,0-0.481-0.086-0.673-0.26c-0.408-0.372-0.438-1.004-0.066-1.413    c1.142-1.255,2.585-2.233,4.176-2.831c0.517-0.192,1.093,0.067,1.288,0.584c0.193,0.517-0.068,1.094-0.585,1.288    c-1.295,0.486-2.471,1.283-3.4,2.304C28.906,15.419,28.636,15.529,28.364,15.529z" fill="#9b6026"/></g><path d="M50.765,0.46l-5.089-0.419C40.301-0.401,35.27,2.722,33.281,7.734l-1.884,4.746l5.089,0.419   c5.374,0.442,10.406-2.681,12.395-7.693L50.765,0.46z" fill="#659c35"/><path d="M31.958,11.068l-0.561,1.413l0.718,0.059c6.258-6.111,13.059-8.117,13.803-8.164l0.035-0.559   l0.413,0.413l0.158-0.593L46.08,3.212C45.482,3.08,38.497,5.009,31.958,11.068z" fill="#88c057"/></g><g transform="matrix(0.39949536323547363 0.11749862879514694 -0.11749862879514694 0.39949536323547363 218.5645751953125 49.3994026184082)" id="L1_3"><path d="M40.47,8.458c-2.562-1.642-7.374-3.93-11.997-1.816c-0.445,0.204-0.952-0.117-0.952-0.607V1.786   C27.522,0.804,26.855,0,26.04,0h-2.223c-0.815,0-1.482,0.804-1.482,1.786v4.501c0,0.425-0.385,0.747-0.802,0.661   c-1.877-0.387-6.751-0.989-11.412,1.795c-0.638,0.381-0.268,1.381,0.464,1.247c2.17-0.397,5.026-0.67,6.956,0.092   c0.506,0.199,0.579,0.891,0.124,1.189c-1.371,0.895-3.9,2.953-5.557,6.737c-0.282,0.644,0.51,1.221,1.053,0.774   c2.117-1.744,5.6-4.107,8.554-3.726c0.348,0.045,0.612,0.329,0.607,0.68c-0.03,1.982-0.005,8.716,1.632,11.265   c0.258,0.402,0.836,0.422,1.117,0.035c1.043-1.433,3.304-5.233,3.211-11.167c-0.006-0.39,0.307-0.707,0.697-0.694   c1.49,0.048,5.008,0.469,7.798,3.194c0.457,0.447,1.214,0.061,1.134-0.573c-0.219-1.735-1.174-4.359-4.631-6.394   c-0.525-0.309-0.436-1.095,0.155-1.24c1.194-0.293,3.252-0.572,6.644-0.46C40.768,9.723,41.049,8.829,40.47,8.458z" fill="#88c057"/><path d="M41.248,9.99c-0.093-0.065-0.201-0.106-0.314-0.12c-0.4-0.049-0.801-0.095-1.201-0.149   c-0.143-0.014-0.287-0.025-0.429-0.039c-2.914-0.048-4.743,0.206-5.846,0.474c-0.599,0.146-0.707,0.931-0.175,1.244   c3.457,2.035,4.411,4.659,4.63,6.393c0.08,0.634-0.677,1.02-1.134,0.573c-2.79-2.724-6.308-3.145-7.798-3.194   c-0.39-0.013-0.704,0.304-0.697,0.694c0.092,5.934-2.168,9.734-3.211,11.167c-0.282,0.387-0.859,0.367-1.117-0.035   c-1.637-2.549-1.662-9.283-1.632-11.265c0.005-0.35-0.259-0.635-0.607-0.68c-2.954-0.382-6.437,1.982-8.554,3.726   c-0.543,0.447-1.335-0.13-1.053-0.774c1.655-3.779,4.18-5.836,5.552-6.733c0.457-0.299,0.381-0.994-0.128-1.19   c-0.371-0.143-0.776-0.249-1.203-0.324c-0.076-0.014-0.157-0.015-0.234-0.004c-2.425,0.33-4.807,0.791-7.119,1.411   c-0.102,0.027-0.197,0.076-0.278,0.144c-5.103,4.246-8.307,10.359-8.307,17.156c0,12.821,11.393,23.214,25.446,23.214   s25.446-10.393,25.446-23.214C51.286,20.928,47.348,14.23,41.248,9.99z" fill="#d13834"/><path d="M5.791,34.636c-0.342,0-0.675-0.175-0.861-0.49C4.182,32.883,3.692,31.488,3.473,30   c-0.08-0.547,0.298-1.055,0.844-1.135c0.556-0.086,1.055,0.298,1.135,0.844c0.178,1.213,0.593,2.395,1.199,3.418   c0.281,0.475,0.125,1.089-0.351,1.37C6.14,34.591,5.964,34.636,5.791,34.636z" fill="#ed7161"/><path d="M4.588,26.678c-0.023,0-0.047-0.001-0.07-0.003c-0.552-0.038-0.967-0.516-0.929-1.066   c0.094-1.327,0.366-2.616,0.811-3.834c0.189-0.519,0.761-0.783,1.283-0.596c0.519,0.189,0.785,0.764,0.596,1.283   c-0.381,1.041-0.614,2.146-0.694,3.285C5.548,26.275,5.109,26.678,4.588,26.678z" fill="#ed7161"/></g><g transform="matrix(0.5123744010925293 -0.12809360027313232 0.12809360027313232 0.5123744010925293 292.62518310546875 123.04981994628906)" id="L1_4"><path d="M45.146,13.699c0-0.995-0.563-1.851-1.387-2.307c0.39-0.796,0.615-1.684,0.615-2.626   c0-3.353-2.767-6.071-6.18-6.071c-0.892,0-1.738,0.189-2.504,0.524c-0.913-1.235-2.39-2.042-4.062-2.042   c-1.895,0-3.543,1.032-4.398,2.554c-0.942-0.651-2.088-1.036-3.327-1.036c-3.2,0-5.794,2.548-5.794,5.692   c0,0.235,0.019,0.466,0.047,0.693c-2.274,0.769-3.91,2.883-3.91,5.378c0,1.946,0.995,3.662,2.511,4.688   c-0.605,0.815-0.966,1.815-0.966,2.901c0,2.724,2.248,4.933,5.021,4.933c1.161,0,2.226-0.391,3.077-1.04   c1.12,1.546,2.955,2.558,5.035,2.558c2.198,0,4.123-1.131,5.219-2.829c0.737,1.237,2.101,2.07,3.665,2.07   c2.347,0,4.249-1.869,4.249-4.174c0-0.517-0.1-1.01-0.275-1.467c1.524-0.634,2.593-2.117,2.593-3.845   c0-0.818-0.243-1.58-0.658-2.224C44.563,15.58,45.146,14.711,45.146,13.699z" fill="#88c057"/><path d="M22.832,26.543c-0.62,0.271-1.298,0.437-2.021,0.437c-2.773,0-5.021-2.209-5.021-4.933   c0-1.086,0.361-2.086,0.966-2.901c-1.516-1.026-2.511-2.742-2.511-4.688c0-0.942,0.235-1.83,0.648-2.611   c-1.657-0.985-3.838-0.786-5.269,0.619c-0.126,0.124-0.239,0.255-0.346,0.389c-1.607-0.77-3.599-0.503-4.934,0.808   c-1.041,1.023-1.436,2.439-1.189,3.762C2.4,17.54,1.675,17.88,1.094,18.451c-1.458,1.432-1.458,3.755,0,5.187   c0.61,0.6,1.38,0.945,2.175,1.042c-0.239,1.392,0.185,2.872,1.278,3.946c1.156,1.135,2.773,1.535,4.258,1.208   c-0.274,1.031-0.003,2.173,0.819,2.982c1.234,1.212,3.234,1.212,4.468,0c0.277-0.272,0.488-0.583,0.641-0.914   c1.141,0.454,2.496,0.226,3.421-0.682c0.438-0.43,0.717-0.956,0.844-1.509c0.686,0.202,1.457,0.046,1.999-0.486   c0.532-0.523,0.695-1.264,0.505-1.929C21.979,27.131,22.42,26.864,22.832,26.543z" fill="#659c35"/><path d="M55.484,19.249c-0.126-0.124-0.259-0.235-0.396-0.34c0.784-1.579,0.512-3.536-0.823-4.847   c-1.041-1.023-2.483-1.411-3.83-1.168c-0.118-0.741-0.463-1.454-1.044-2.024c-1.458-1.433-3.822-1.433-5.281,0   c-0.095,0.094-0.174,0.198-0.256,0.299c-0.033,0.074-0.06,0.152-0.095,0.224c0.824,0.455,1.387,1.312,1.387,2.307   c0,1.012-0.583,1.881-1.43,2.329c0.414,0.644,0.658,1.405,0.658,2.224c0,1.728-1.069,3.211-2.593,3.845   c0.175,0.457,0.275,0.95,0.275,1.467c0,2.305-1.902,4.174-4.249,4.174c-0.549,0-1.071-0.108-1.553-0.295   c0.052,0.059,0.082,0.129,0.138,0.184c0.438,0.43,0.973,0.705,1.536,0.83c-0.206,0.674-0.047,1.432,0.495,1.964   c0.532,0.523,1.287,0.683,1.964,0.496c0.221,0.62,0.578,1.203,1.083,1.698c1.795,1.763,4.704,1.763,6.499,0   c0.469-0.461,0.812-0.997,1.036-1.569c1.141,0.178,2.349-0.161,3.229-1.025c0.996-0.979,1.311-2.373,0.946-3.615   c0.843-0.144,1.652-0.533,2.304-1.174C57.166,23.581,57.166,20.902,55.484,19.249z" fill="#659c35"/><path d="M40.387,30.918c-0.677,0.186-1.431,0.027-1.964-0.496c-0.317-0.311-0.503-0.7-0.561-1.104   c-0.033-0.225-0.109-0.442-0.222-0.635c-3.918,4.044-6.655,11.494-6.655,11.494c1.301-4.626,1.096-9.242,0.693-12.321   c-0.829,0.409-1.764,0.642-2.756,0.642c-0.966,0-1.875-0.226-2.688-0.615c1.751,6.191,0.751,16.294,0.751,16.294   c-1.874-7.495-5.994-12.181-7.941-14.058c-0.139,0.109-0.264,0.235-0.352,0.393c-0.14,0.254-0.32,0.493-0.539,0.709   c-0.925,0.909-2.281,1.136-3.421,0.682c-0.153,0.331-0.364,0.642-0.641,0.914c-0.33,0.324-0.717,0.555-1.127,0.706   c5.021,0,10.78,9.994,11.523,20.655c0.055,0.784,0.712,1.392,1.498,1.392h5c0.77,0,1.412-0.577,1.499-1.341   c0.459-4.056,1.876-21.012,9.746-21.012c-0.269-0.171-0.525-0.368-0.761-0.599C40.966,32.121,40.608,31.538,40.387,30.918z" fill="#436b1c"/><path d="M23.468,15.177c-0.121,0-0.244-0.022-0.364-0.069c-2.517-0.984-3.765-3.833-2.781-6.35   c0.984-2.516,3.828-3.764,6.351-2.782c0.514,0.201,0.769,0.781,0.567,1.295c-0.201,0.515-0.779,0.768-1.296,0.568   c-1.491-0.583-3.177,0.156-3.759,1.646c-0.583,1.491,0.156,3.177,1.646,3.759c0.514,0.201,0.769,0.781,0.567,1.295   C24.245,14.936,23.867,15.177,23.468,15.177z" fill="#659c35"/><path d="M49.084,25.647c-0.604,0-1.207-0.113-1.786-0.339c-1.219-0.477-2.18-1.399-2.705-2.599   c-0.222-0.506,0.009-1.096,0.515-1.317c0.51-0.222,1.097,0.01,1.317,0.515c0.311,0.71,0.88,1.256,1.602,1.539   c0.723,0.282,1.511,0.265,2.221-0.045c0.71-0.311,1.256-0.88,1.538-1.602c0.282-0.722,0.267-1.51-0.045-2.22   c-0.222-0.506,0.009-1.096,0.515-1.317c0.509-0.221,1.096,0.009,1.317,0.515c0.525,1.199,0.553,2.531,0.076,3.751   s-1.399,2.181-2.599,2.706C50.419,25.508,49.752,25.647,49.084,25.647z" fill="#88c057"/><path d="M35.391,23.175c-1.711,0-3.375-0.896-4.275-2.489c-0.272-0.481-0.103-1.091,0.378-1.363   c0.479-0.272,1.091-0.103,1.362,0.378c0.382,0.675,1.003,1.161,1.75,1.369c0.745,0.206,1.529,0.111,2.204-0.27   s1.161-1.002,1.369-1.75c0.207-0.747,0.111-1.53-0.27-2.204c-0.272-0.481-0.103-1.091,0.378-1.363   c0.479-0.271,1.091-0.103,1.362,0.378c0.645,1.14,0.807,2.462,0.456,3.724s-1.172,2.311-2.312,2.955   C37.034,22.971,36.207,23.175,35.391,23.175z" fill="#659c35"/><path d="M31.881,17.778c-0.716,0-1.441-0.157-2.128-0.489c-2.433-1.178-3.454-4.115-2.277-6.548   c0.241-0.496,0.837-0.705,1.336-0.465c0.497,0.241,0.705,0.839,0.465,1.336c-0.697,1.44-0.093,3.179,1.348,3.876   c1.44,0.695,3.179,0.093,3.876-1.348c0.24-0.496,0.836-0.706,1.336-0.465c0.497,0.241,0.705,0.839,0.465,1.336   C35.455,16.759,33.702,17.778,31.881,17.778z" fill="#659c35"/><path d="M24.279,23.391c-0.667,0-1.333-0.138-1.962-0.413c-2.476-1.083-3.61-3.978-2.528-6.455   c0.221-0.504,0.806-0.737,1.316-0.516c0.506,0.221,0.737,0.811,0.516,1.317c-0.64,1.466,0.031,3.181,1.497,3.821   c0.712,0.311,1.5,0.326,2.221,0.043c0.722-0.283,1.29-0.829,1.601-1.54c0.221-0.504,0.807-0.736,1.316-0.516   c0.506,0.221,0.737,0.811,0.516,1.317c-0.523,1.2-1.483,2.124-2.703,2.601C25.489,23.278,24.884,23.391,24.279,23.391z" fill="#659c35"/><path d="M35.404,12.479c-0.158,0-0.317-0.007-0.477-0.022c-1.304-0.125-2.48-0.75-3.313-1.76   c-0.352-0.426-0.291-1.056,0.135-1.408c0.428-0.353,1.057-0.29,1.408,0.135c0.493,0.598,1.189,0.968,1.961,1.042   c0.782,0.079,1.527-0.158,2.124-0.65c1.234-1.018,1.41-2.851,0.392-4.085c-0.352-0.426-0.291-1.056,0.135-1.408   c0.428-0.353,1.057-0.29,1.408,0.135c1.72,2.084,1.423,5.18-0.661,6.9C37.628,12.089,36.538,12.479,35.404,12.479z" fill="#659c35"/><path d="M9.882,24.546c-0.613,0-1.235-0.115-1.837-0.359c-2.504-1.016-3.715-3.88-2.699-6.385   c0.207-0.512,0.79-0.757,1.303-0.551c0.512,0.208,0.758,0.791,0.551,1.303c-0.602,1.482,0.115,3.178,1.598,3.78   c1.486,0.604,3.18-0.115,3.78-1.598c0.208-0.513,0.793-0.758,1.303-0.551c0.512,0.208,0.759,0.791,0.551,1.303   C13.658,23.39,11.82,24.546,9.882,24.546z" fill="#88c057"/></g><g transform="matrix(0.039169277995824814 0.039169277995824814 -0.039169277995824814 0.039169277995824814 65.97455596923828 210.88650512695312)" id="L1_5"><path d="m426.694 127.832c.103-11.202-1.962-22.488-5.602-33.043-5.687-16.49-16.006-31.058-30.338-41.022-1.585-1.102-3.676-1.166-5.324-.16-14.696 8.97-25.776 22.65-32.457 38.509-5.433 12.894-8.823 27.475-7.327 41.556 2.384 22.426 11.961 44.782 29.426 59.718 2.495 2.133 5.292 4.155 8.036 5.946 1.603 1.046 3.675 1.052 5.282.013 4.099-2.65 7.946-5.69 11.477-9.062 16.557-15.812 26.615-39.46 26.827-62.455z" fill="#91deb6"/><path d="m426.695 127.834c-.217 22.989-10.267 46.639-26.827 62.446-3.529 3.374-7.378 6.418-11.474 9.07-1.61 1.042-3.684 1.032-5.283-.01-1.269-.825-2.58-1.692-2.879-1.899-.743-.537-1.465-1.083-2.187-1.63.784-.681 1.548-1.393 2.301-2.105 16.561-15.818 26.621-39.467 26.827-62.456.103-11.206-1.96-22.494-5.603-33.049-5.066-14.693-13.806-27.859-25.796-37.589 3.013-2.58 6.243-4.922 9.658-7.006 1.641-1.001 3.735-.939 5.324.165 14.332 9.957 24.65 24.526 30.336 41.015 3.642 10.555 5.706 21.843 5.603 33.048z" fill="#6ed5a1"/><path d="m453.845 202.508c9.89-5.263 18.816-12.47 26.349-20.712 11.767-12.876 19.633-28.903 21.536-46.254.211-1.919-.733-3.786-2.404-4.753-14.903-8.622-32.214-11.818-49.338-10.108-13.922 1.39-28.351 5.38-40.005 13.424-18.56 12.811-33.622 31.908-38.395 54.387-.78 3.671-3.561 11.991 1.131 14.546 4.287 2.334 8.796 4.261 13.446 5.751 21.8 6.988 47.38 4.522 67.68-6.281z" fill="#00c27a"/><path d="m501.729 135.542c-1.899 17.355-9.771 33.38-21.534 46.257-7.532 8.234-16.458 15.446-26.353 20.709-20.296 10.803-45.875 13.269-67.677 6.284-4.654-1.496-9.163-3.415-13.445-5.758-1.073-.578-1.878-1.537-2.27-2.652 21.41 6.304 46.154 3.694 65.903-6.82 9.895-5.262 18.82-12.475 26.353-20.709 11.763-12.877 19.636-28.912 21.534-46.257.103-.918-.062-1.826-.444-2.621 5.376 1.692 10.587 3.952 15.529 6.81 1.672.97 2.611 2.838 2.404 4.757z" fill="#08b865"/><path d="m318.143 202.508c-9.89-5.263-18.816-12.47-26.348-20.712-11.767-12.876-19.633-28.903-21.536-46.254-.211-1.919.733-3.786 2.404-4.753 14.903-8.622 32.214-11.818 49.338-10.108 13.922 1.39 28.351 5.38 40.005 13.424 18.56 12.811 33.622 31.908 38.395 54.387.79 3.718 3.66 11.937-1.131 14.546-4.287 2.334-8.796 4.261-13.446 5.751-21.801 6.988-47.381 4.522-67.681-6.281z" fill="#00c27a"/><path d="m399.269 203.034c-2.879 1.579-5.871 2.961-8.936 4.158-.113-.547-.227-1.094-.341-1.641-4.767-22.483-19.832-41.572-38.394-54.388-11.649-8.048-26.074-12.031-40.004-13.424-13.672-1.372-27.467.392-40.066 5.561-.557-2.549-.98-5.138-1.269-7.759-.217-1.919.733-3.787 2.404-4.757 14.9-8.616 32.214-11.814 49.332-10.102 13.93 1.383 28.355 5.376 40.014 13.424 18.552 12.805 33.617 31.904 38.394 54.387.454 2.136.815 4.292 1.083 6.47.041.361.175 1.919.299 3.426.146 1.91-.834 3.737-2.516 4.645z" fill="#08b865"/><path d="m106.991 180.796c-7.848-7.994-17.289-14.514-27.327-19.404-15.681-7.639-33.28-10.643-50.459-7.555-1.901.342-3.424 1.775-3.878 3.652-4.049 16.734-2.211 34.242 4.279 50.18 5.276 12.959 13.189 25.667 24.204 34.565 17.538 14.168 40.11 23.203 63.014 21.422 3.97-.309 12.564-.143 13.65-5.206 1.025-4.773 1.595-9.643 1.708-14.524.529-22.887-9.081-46.721-25.191-63.13z" fill="#91deb6"/><path d="m132.181 243.925c-.113 4.881-.681 9.751-1.702 14.528-.402 1.868-1.878 3.333-3.746 3.725-1.476.31-3.013.629-3.374.691-1.228.196-2.466.371-3.704.516.083-1.145.134-2.301.165-3.457.526-22.886-9.08-46.721-25.197-63.137-7.842-7.986-17.283-14.507-27.323-19.398-13.672-6.655-28.788-9.802-43.822-8.451.32-3.838.929-7.666 1.847-11.453.454-1.878 1.981-3.312 3.88-3.653 17.18-3.085 34.783-.083 50.456 7.553 10.04 4.891 19.481 11.412 27.333 19.409 16.107 16.406 25.713 40.241 25.187 63.127z" fill="#6ed5a1"/><path d="m178.993 214.401c3.271-10.715 4.487-22.123 3.985-33.277-.784-17.425-6.555-34.32-17.478-47.935-1.208-1.506-3.195-2.159-5.061-1.661-16.635 4.441-31.135 14.422-42.034 27.74-8.862 10.827-16.243 23.851-18.796 37.78-2.329 12.708-2.391 25.911.298 38.569 1.61 7.581 3.869 15.191 7.524 22.057 2.158 4.054 8.935 16.129 14.572 14.467 4.682-1.381 9.232-3.207 13.574-5.441 20.357-10.475 36.701-30.307 43.416-52.299z" fill="#00c27a"/><path d="m178.995 214.405c-6.717 21.988-23.061 41.82-43.419 52.293-4.344 2.239-8.894 4.065-13.569 5.438-1.837.547-3.828-.041-5.066-1.506-.98-1.145-1.991-2.342-2.218-2.631-.268-.341-.526-.691-.784-1.032.186-.083.361-.175.547-.268 20.358-10.473 36.702-30.305 43.419-52.293 3.271-10.721 4.488-22.122 3.983-33.276-.722-16.024-5.654-31.605-14.941-44.585 4.303-2.074 8.822-3.766 13.496-5.015 1.868-.495 3.849.155 5.056 1.661 10.927 13.61 16.695 30.511 17.479 47.939.505 11.152-.712 22.554-3.983 33.275z" fill="#08b865"/><path d="m83.038 310.356c-10.715 3.271-22.123 4.487-33.277 3.985-17.425-.784-34.32-6.555-47.935-17.478-1.506-1.208-2.159-3.195-1.661-5.061 4.441-16.635 14.422-31.135 27.74-42.034 10.827-8.862 23.851-16.243 37.78-18.796 22.183-4.065 46.337-1.211 65.607 11.308 2.833 1.841 5.421 3.845 7.978 6.023 1.458 1.241 2.05 3.226 1.508 5.062-1.381 4.682-3.207 9.232-5.441 13.574-10.474 20.358-30.306 36.702-52.299 43.417z" fill="#00c27a"/><path d="m140.776 253.366c-1.176 3.993-2.683 7.893-4.478 11.639-.454-.31-.918-.609-1.372-.908-19.264-12.516-43.419-15.374-65.603-11.309-13.93 2.559-26.951 9.936-37.785 18.8-9.947 8.141-18.036 18.305-23.34 29.861-2.187-1.403-4.313-2.93-6.366-4.581-1.506-1.218-2.167-3.199-1.661-5.066 4.437-16.633 14.415-31.13 27.735-42.037 10.824-8.863 23.856-16.241 37.775-18.789 22.184-4.065 46.339-1.218 65.614 11.309 1.837 1.187 3.611 2.456 5.345 3.807.279.217 1.486 1.228 2.631 2.208 1.454 1.249 2.052 3.23 1.505 5.066z" fill="#08b865"/><path d="m512 285.927c0-69.591-56.415-126.006-126.006-126.006s-126.006 56.415-126.006 126.006c0 22.353 6.163 41.721 16.016 61.508 13.841 27.793 43.935 78.43 90.431 106.253 12.014 7.189 27.028 7.227 39.058.065 27.789-16.544 50.351-41.578 68.297-68.18 4.7-6.967 9.124-14.122 13.281-21.426 13.9-24.423 24.929-49.509 24.929-78.22z" fill="#e94444"/><path d="m511.996 285.931c0 28.705-11.02 53.789-24.929 78.212-4.148 7.305-8.574 14.466-13.28 21.431-17.943 26.6-40.509 51.633-68.297 68.183-11.649 6.934-26.085 7.12-37.899.598 5.716-.444 11.36-2.187 16.468-5.231 27.787-16.54 50.353-41.572 68.297-68.173 4.705-6.965 9.121-14.126 13.28-21.431 13.899-24.423 24.929-49.507 24.929-78.212 0-56.606-37.321-104.493-88.696-120.393 62.106 7.811 110.127 60.795 110.127 125.016z" fill="#d83131"/><g><g><path d="m420.104 341.775c-4.142 0-7.5-3.358-7.5-7.5v-13.81c0-4.142 3.358-7.5 7.5-7.5s7.5 3.358 7.5 7.5v13.81c0 4.142-3.357 7.5-7.5 7.5z" fill="#cc2121"/><path d="m351.883 341.775c-4.142 0-7.5-3.358-7.5-7.5v-13.81c0-4.142 3.358-7.5 7.5-7.5s7.5 3.358 7.5 7.5v13.81c0 4.142-3.358 7.5-7.5 7.5z" fill="#cc2121"/></g><g><path d="m385.994 288.166c-4.142 0-7.5-3.358-7.5-7.5v-13.81c0-4.142 3.358-7.5 7.5-7.5s7.5 3.358 7.5 7.5v13.81c0 4.142-3.358 7.5-7.5 7.5z" fill="#cc2121"/><path d="m458.854 288.166c-4.142 0-7.5-3.358-7.5-7.5v-13.81c0-4.142 3.358-7.5 7.5-7.5s7.5 3.358 7.5 7.5v13.81c0 4.142-3.358 7.5-7.5 7.5z" fill="#cc2121"/></g><path d="m385.994 388.329c-4.142 0-7.5-3.358-7.5-7.5v-13.81c0-4.142 3.358-7.5 7.5-7.5s7.5 3.358 7.5 7.5v13.81c0 4.142-3.358 7.5-7.5 7.5z" fill="#cc2121"/></g><path d="m279.102 232.265c-49.208-49.208-128.991-49.208-178.199 0s-49.208 128.991 0 178.2c15.806 15.806 33.859 25.144 54.818 32.167 29.439 9.865 86.525 24.392 139.076 11.188 13.578-3.412 24.222-14.002 27.664-27.573 7.952-31.348 6.203-65.004.083-96.504-1.603-8.25-3.534-16.437-5.759-24.542-7.442-27.098-17.382-52.634-37.683-72.936z" fill="#e94444"/><path d="m322.46 426.249c-3.446 13.568-14.084 24.155-27.663 27.57-8.605 2.167-17.314 3.58-26.023 4.396 1.465-.32 2.93-.66 4.396-1.032 13.579-3.415 24.217-14.002 27.663-27.57 7.955-31.347 6.201-65.005.083-96.507-1.599-8.255-3.529-16.437-5.758-24.537-7.439-27.106-17.386-52.633-37.682-72.94-26.786-26.786-62.632-38.993-97.673-36.62 41.397-10.174 86.952.908 119.3 33.256 20.296 20.296 30.243 45.834 37.682 72.94 2.229 8.1 4.158 16.282 5.758 24.537 6.118 31.502 7.872 65.16-.083 96.507z" fill="#d83131"/><g><g><path d="m248.309 338.932c-1.919 0-3.839-.732-5.303-2.197l-9.765-9.765c-2.929-2.929-2.929-7.678 0-10.606 2.929-2.929 7.678-2.929 10.606 0l9.765 9.765c2.929 2.929 2.929 7.678 0 10.606-1.464 1.464-3.383 2.197-5.303 2.197z" fill="#cc2121"/><path d="m200.069 387.172c-1.919 0-3.839-.732-5.303-2.197l-9.765-9.766c-2.929-2.929-2.929-7.678 0-10.606 2.929-2.929 7.678-2.929 10.606 0l9.765 9.766c2.929 2.929 2.929 7.678 0 10.606-1.464 1.464-3.384 2.197-5.303 2.197z" fill="#cc2121"/></g><g><path d="m186.282 325.145c-1.919 0-3.839-.732-5.303-2.197l-9.765-9.765c-2.929-2.929-2.929-7.678 0-10.606 2.929-2.929 7.678-2.929 10.606 0l9.765 9.765c2.929 2.929 2.929 7.678 0 10.606-1.464 1.464-3.384 2.197-5.303 2.197z" fill="#cc2121"/><g><path d="m237.802 273.625c-1.919 0-3.839-.732-5.303-2.197l-9.765-9.765c-2.929-2.929-2.929-7.678 0-10.606 2.929-2.929 7.678-2.929 10.606 0l9.765 9.765c2.929 2.929 2.929 7.678 0 10.606-1.464 1.464-3.384 2.197-5.303 2.197z" fill="#cc2121"/><path d="m134.762 376.665c-1.919 0-3.839-.732-5.303-2.197l-9.765-9.765c-2.929-2.929-2.929-7.678 0-10.606 2.929-2.929 7.678-2.929 10.606 0l9.765 9.765c2.929 2.929 2.929 7.678 0 10.606-1.464 1.464-3.383 2.197-5.303 2.197z" fill="#cc2121"/></g></g><path d="m257.108 395.971c-1.919 0-3.839-.732-5.303-2.197l-9.765-9.766c-2.929-2.929-2.929-7.678 0-10.606 2.929-2.929 7.678-2.93 10.606 0l9.765 9.766c2.929 2.929 2.929 7.678 0 10.606-1.464 1.464-3.384 2.197-5.303 2.197z" fill="#cc2121"/></g></g><g transform="matrix(0.42729467153549194 -0.2278904914855957 0.2278904914855957 0.42729467153549194 118.58357238769531 155.1769561767578)" id="L1_6"><path d="M39.685,2.953c-7.524,0-13.623,6.099-13.623,13.623c0,2.243,0.552,4.353,1.512,6.219   c1.496-0.565,3.11-0.888,4.804-0.888c5.281,0,9.851,3.011,12.111,7.404c5.15-1.944,8.819-6.905,8.819-12.735   C53.308,9.052,47.208,2.953,39.685,2.953z" fill="#003879"/><path d="M18.754,35.53c0-5.652,3.443-10.499,8.345-12.561c-0.927-6.622-6.598-11.723-13.475-11.723   C6.099,11.245,0,17.344,0,24.868c0,7.524,6.099,13.623,13.623,13.623c1.872,0,3.655-0.379,5.279-1.062   C18.814,36.807,18.754,36.176,18.754,35.53z" fill="#1a49c1"/><circle cx="32" cy="35" r="14" fill="#415cce"/><path d="M28.103,32.153c-0.317,0-0.629-0.15-0.824-0.432c-0.314-0.454-0.2-1.077,0.254-1.391l2.841-1.964   c1.132-0.781,2.656-0.705,3.704,0.186l2.165,1.839c0.421,0.357,0.472,0.989,0.115,1.41c-0.358,0.421-0.989,0.473-1.41,0.115   l-2.165-1.839c-0.355-0.302-0.89-0.328-1.272-0.064l-2.841,1.964C28.497,32.095,28.299,32.153,28.103,32.153z" fill="#121c60"/><path d="M28.606,28.597h-2.355c-0.552,0-1-0.448-1-1s0.448-1,1-1h2.355c0.48,0,0.81-0.283,0.839-0.398   l0.45-1.788c0.135-0.536,0.679-0.859,1.214-0.726c0.536,0.135,0.86,0.678,0.726,1.214l-0.45,1.788   C31.109,27.776,29.915,28.597,28.606,28.597z" fill="#121c60"/><path d="M37.842,28.597c-0.029,0-0.059-0.001-0.089-0.004l-2.894-0.256   c-1.329-0.118-2.405-1.042-2.502-2.149l-0.126-1.446c-0.048-0.55,0.359-1.035,0.909-1.083c0.564-0.059,1.035,0.36,1.083,0.909   l0.126,1.445c0.025,0.069,0.27,0.294,0.686,0.331l2.895,0.256c0.55,0.049,0.957,0.534,0.908,1.084   C38.791,28.205,38.355,28.597,37.842,28.597z" fill="#121c60"/><path d="M9.262,21.651c-0.317,0-0.629-0.15-0.824-0.432c-0.314-0.454-0.2-1.077,0.254-1.391l2.841-1.964   c1.132-0.781,2.656-0.704,3.704,0.186l2.165,1.838c0.421,0.357,0.472,0.988,0.115,1.41s-0.988,0.471-1.41,0.115l-2.166-1.839   c-0.354-0.301-0.889-0.329-1.271-0.064L9.83,21.474C9.656,21.593,9.458,21.651,9.262,21.651z" fill="#121c60"/><path d="M9.765,18.095H7.41c-0.552,0-1-0.448-1-1s0.448-1,1-1h2.355c0.48,0,0.81-0.283,0.839-0.398   l0.45-1.788c0.135-0.536,0.678-0.86,1.214-0.726c0.536,0.135,0.86,0.678,0.726,1.214l-0.45,1.788   C12.269,17.274,11.074,18.095,9.765,18.095z" fill="#121c60"/><path d="M19.001,18.095c-0.029,0-0.059-0.001-0.089-0.004l-2.894-0.256   c-1.329-0.118-2.405-1.042-2.502-2.149l-0.126-1.445c-0.048-0.55,0.359-1.036,0.909-1.083c0.565-0.057,1.036,0.359,1.083,0.909   l0.126,1.445c0.025,0.069,0.27,0.295,0.686,0.332l2.895,0.256c0.55,0.049,0.957,0.534,0.908,1.084   C19.95,17.703,19.514,18.095,19.001,18.095z" fill="#121c60"/><path d="M35.262,13.153c-0.317,0-0.629-0.15-0.824-0.432c-0.314-0.454-0.2-1.077,0.254-1.391l2.841-1.964   c1.132-0.782,2.655-0.704,3.704,0.186l2.165,1.838c0.421,0.357,0.472,0.988,0.115,1.41s-0.989,0.472-1.41,0.115l-2.166-1.839   c-0.354-0.301-0.888-0.328-1.271-0.064l-2.841,1.964C35.656,13.095,35.458,13.153,35.262,13.153z" fill="#0a1135"/><path d="M35.765,9.597H33.41c-0.552,0-1-0.448-1-1s0.448-1,1-1h2.355c0.48,0,0.81-0.283,0.839-0.398   l0.45-1.788c0.135-0.536,0.677-0.86,1.214-0.726c0.536,0.135,0.86,0.678,0.726,1.214l-0.45,1.788   C38.269,8.776,37.074,9.597,35.765,9.597z" fill="#0a1135"/><path d="M45.001,9.597c-0.029,0-0.059-0.001-0.089-0.004l-2.894-0.256c-1.329-0.118-2.405-1.042-2.502-2.149   l-0.126-1.445c-0.048-0.55,0.359-1.036,0.909-1.083c0.563-0.057,1.036,0.359,1.083,0.909l0.126,1.445   c0.025,0.069,0.27,0.295,0.686,0.332l2.895,0.256c0.55,0.049,0.957,0.534,0.908,1.084C45.95,9.205,45.514,9.597,45.001,9.597z" fill="#0a1135"/><path d="M7.022,32.153c-0.174,0-0.352-0.045-0.512-0.142c-4.247-2.539-3.635-9.125-3.607-9.404   c0.056-0.549,0.55-0.942,1.094-0.895c0.549,0.055,0.95,0.544,0.896,1.093c-0.005,0.056-0.51,5.604,2.643,7.489   c0.474,0.283,0.628,0.897,0.345,1.372C7.693,31.979,7.362,32.153,7.022,32.153z" fill="#3265d6"/><path d="M24.35,43.307c-0.175,0-0.352-0.045-0.512-0.142c-4.247-2.539-3.635-9.125-3.607-9.404   c0.056-0.549,0.55-0.944,1.094-0.895c0.549,0.055,0.95,0.544,0.896,1.093c-0.005,0.056-0.51,5.604,2.643,7.489   c0.474,0.283,0.628,0.897,0.345,1.372C25.022,43.133,24.69,43.307,24.35,43.307z" fill="#447ce0"/><path d="M29.743,20.366c-0.324,0-0.642-0.157-0.834-0.448c-2.733-4.125,0.665-9.8,0.811-10.04   c0.288-0.471,0.902-0.62,1.373-0.333c0.471,0.287,0.622,0.901,0.335,1.373c-0.029,0.048-2.881,4.833-0.853,7.896   c0.305,0.46,0.179,1.081-0.281,1.386C30.124,20.313,29.932,20.366,29.743,20.366z" fill="#1951a3"/></g><g transform="matrix(0.05137891694903374 0.005708768498152494 -0.005708768498152494 0.05137891694903374 220.18020629882812 186.28932189941406)" id="L1_7"><path d="m246.316406.503906c-54.417968-.402344-101.664062 30.496094-124.800781 75.761719-19.933594 39.011719-43.796875 75.929687-72.96875 108.613281-24.425781 27.363282-47.527344 67.886719-48.4960938 123.734375-.0351562 1.210938-.0507812 2.421875-.0507812 3.636719 0 75.070312 60.859375 135.929688 135.929688 135.929688.144531 0 .285156-.003907.429687-.003907 1.027344-.003906 2.054687-.015625 3.078125-.039062 135.46875-1.878907 244.710938-112.261719 244.710938-248.175781v-58.832032c0-76.582031-61.253907-140.058594-137.832032-140.625zm0 0" fill="#f0a65f"/><path d="m384.148438 199.960938v-58.832032c0-46.863281-22.941407-88.816406-58.292969-114.449218v-.003907c16.984375 23.386719 27 52.199219 27 83.15625v14.285157c0 25.1875-18.144531 46.675781-42.953125 51.011718-12.953125 2.265625-25.652344 3.742188-38.234375 4.457032-40.820313 2.316406-77.90625 18.507812-107.257813 46.828124-.785156.746094-1.5625 1.503907-2.332031 2.273438-23.757813 23.753906-36.839844 55.339844-36.839844 88.9375 0 19.675781 5.597657 37.507812 12.597657 52.113281 10.402343 21.710938-5.027344 47.03125-29.101563 47.101563-.195313 0-.394531 0-.589844 0-36.859375 0-60.398437-9.386719-82.699219-25.398438 24.667969 34.355469 64.960938 56.738282 110.484376 56.738282 135.253906-.660157 248.21875-112.472657 248.21875-248.21875zm0 0" fill="#e28540"/><path d="m312.195312 202.910156c-3.207031 0-6.207031-1.992187-7.347656-5.175781-.277344-.75-6.101562-15.949219-24.363281-22.320313-4.070313-1.421874-6.214844-5.871093-4.796875-9.941406 1.417969-4.066406 5.871094-6.222656 9.941406-4.796875 25.625 8.9375 33.601563 30.90625 33.929688 31.839844 1.429687 4.066406-.710938 8.519531-4.777344 9.949219-.855469.300781-1.726562.445312-2.585938.445312zm0 0" fill="#e28540"/><path d="m481.511719 207.679688c-29.496094-29.9375-72.164063-38.859376-109.515625-26.777344-32.183594 10.414062-65.371094 17.546875-99.144532 19.460937-28.28125 1.609375-63.023437 11.117188-94.042968 41.082031-.679688.644532-1.347656 1.296876-2.011719 1.960938-40.992187 40.992188-40.992187 107.449219 0 148.441406.078125.078125.15625.152344.234375.230469.566406.5625 1.128906 1.117187 1.703125 1.660156 74.996094 72.941407 194.914063 72.320313 269.125-1.890625l32.125-32.125c41.816406-41.816406 43.027344-109.917968 1.527344-152.042968zm0 0" fill="#f0a65f"/><g fill="#e28540"><path d="m481.511719 207.679688c-4.5-4.566407-9.308594-8.636719-14.351563-12.222657 29.882813 42.132813 25.199219 101.21875-12.511718 138.929688l-32.125 32.125c-69.949219 69.949219-180.496094 74.507812-255.765626 13.722656 3.015626 4.710937 11.402344 12.960937 11.976563 13.503906 74.996094 72.941407 194.914063 72.320313 269.125-1.890625l32.125-32.125c41.816406-41.816406 43.027344-109.917968 1.527344-152.042968zm0 0"/><path d="m153.53125 43.667969c.167969-.011719 16.941406-1.128907 33.238281 4.710937.871094.3125 1.757813.457032 2.632813.457032 3.203125 0 6.207031-1.984376 7.347656-5.171876 1.453125-4.058593-.65625-8.527343-4.714844-9.980468-11.089844-3.976563-22.199218-5.25-29.824218-5.601563-5.324219 3.980469-10.351563 8.324219-15.046876 13.007813 1.558594 1.738281 3.863282 2.769531 6.367188 2.578125zm0 0"/><path d="m199.8125 173.769531c-2.46875 0-4.894531-1.167969-6.414062-3.34375-10.925782-15.695312-35.074219-16.429687-35.316407-16.429687-4.308593-.054688-7.761719-3.589844-7.707031-7.902344.050781-4.277344 3.535156-7.707031 7.800781-7.707031h.097657c1.3125.015625 32.292968.652343 47.9375 23.117187 2.460937 3.539063 1.589843 8.402344-1.945313 10.863282-1.359375.949218-2.914063 1.402343-4.453125 1.402343zm0 0"/><path d="m306.984375 100.925781c-3.515625 0-6.710937-2.398437-7.578125-5.96875-4.28125-17.667969-24.363281-22.113281-25.214844-22.296875-4.207031-.886718-6.914062-5.011718-6.042968-9.222656.871093-4.207031 4.964843-6.917969 9.175781-6.066406 1.246093.25 30.609375 6.503906 37.253906 33.90625 1.015625 4.191406-1.558594 8.410156-5.746094 9.425781-.617187.148437-1.238281.222656-1.847656.222656zm0 0"/><path d="m105.101562 265.347656c-3.445312 0-6.59375-2.292968-7.53125-5.777344-5.804687-21.5625-33.761718-25.46875-34.042968-25.507812-4.261719-.558594-7.285156-4.464844-6.738282-8.730469.550782-4.265625 4.4375-7.285156 8.699219-6.753906 1.574219.195313 38.605469 5.179687 47.15625 36.933594 1.117188 4.164062-1.347656 8.445312-5.507812 9.566406-.683594.183594-1.363281.269531-2.035157.269531zm0 0"/><path d="m398.496094 175.90625c-7.078125.4375-14.121094 1.570312-21.019532 3.402344.585938 2.332031 2.230469 4.363281 4.628907 5.335937.246093.101563 24.671875 10.246094 27.449219 32.25.5 3.945313 3.859374 6.828125 7.734374 6.828125.328126 0 .65625-.019531.988282-.0625 4.277344-.542968 7.304687-4.445312 6.765625-8.722656-2.507813-19.867188-16.480469-32.425781-26.546875-39.03125zm0 0"/><path d="m342.363281 279.914062c-4.015625 0-7.429687-3.082031-7.765625-7.15625-1.664062-19.96875-25.355468-30.878906-25.589844-30.988281-3.921874-1.769531-5.683593-6.382812-3.925781-10.308593 1.757813-3.925782 6.351563-5.695313 10.285157-3.945313 1.320312.585937 32.347656 14.699219 34.785156 43.945313.359375 4.296874-2.832032 8.070312-7.128906 8.425781-.222657.019531-.441407.027343-.660157.027343zm0 0"/><path d="m423.535156 302.8125c-3.910156 0-7.285156-2.933594-7.746094-6.914062-1.570312-13.636719-14.601562-21.035157-14.730468-21.109376-3.753906-2.085937-5.132813-6.824218-3.066406-10.585937 2.066406-3.761719 6.761718-5.164063 10.535156-3.117187.828125.445312 20.253906 11.203124 22.769531 33.023437.492187 4.28125-2.578125 8.152344-6.859375 8.648437-.300781.035157-.605469.054688-.902344.054688zm0 0"/><path d="m201.878906 276.792969c-4.132812 0-7.578125-3.242188-7.789062-7.414063-.726563-14.566406-18.632813-18.28125-18.816406-18.320312-4.226563-.835938-6.972657-4.945313-6.136719-9.171875.839843-4.230469 4.949219-6.976563 9.175781-6.136719 10.382812 2.058594 30.304688 11.574219 31.367188 32.847656.214843 4.304688-3.101563 7.972656-7.40625 8.183594-.128907.007812-.261719.011719-.394532.011719zm0 0"/><path d="m336.324219 396.84375c-1.226563-4.132812-5.570313-6.484375-9.703125-5.253906-4.132813 1.226562-6.484375 5.574218-5.257813 9.703125 6.808594 22.890625-6.324219 39.992187-6.945312 40.777343-1.378907 1.730469-1.898438 3.867188-1.628907 5.902344 5.660157-.015625 11.320313-.28125 16.960938-.792968 5.003906-8.347657 13.484375-27.113282 6.574219-50.335938zm0 0"/></g></g><g transform="matrix(0.5040806531906128 -0.140022411942482 0.140022411942482 0.5040806531906128 99.64305877685547 5.62434196472168)" id="L1_8"><path d="M18.986,38.342v-6.137c0-3.263-1.082-6.477-3.236-8.927c-1.845-2.099-4.639-3.936-8.764-3.936   c0,0,23-9.563,23,10v9v-0.337v6.658c0,0-0.536,8.572,7.024,9.843c0.453,0.076,0.508,0.699,0.071,0.84   c-5.513,1.788-18.095,5.418-18.095-10.684v-6.658V38.342z" fill="#88c057"/><path d="M32.446,24.544c-1.594,0.672-2.537,2.165-2.455,3.748c0.018,0.34,0.027,0.69,0.027,1.05v8.663v0.337   v6.321c0,0-0.015,0.055-0.036,0.147c-0.03,1.093,0.031,8.494,6.998,9.689C36.863,52.596,35.365,24.073,50.014,28   C50.014,28,40.714,21.056,32.446,24.544z" fill="#659c35"/><path d="M35.72,6.006c-0.003-0.01-0.004-0.011-0.008-0.021C33.418-0.042,28.718,0,28.718,0   s-4.701-0.042-6.994,5.985c-0.004,0.01-0.005,0.012-0.008,0.022c-0.053,0.172-1.115,3.704-1.729,10.949   c-0.004,0.05,0.022,0.091,0.039,0.136c4.373,0.408,8.432,2.515,9.609,8.486c0.37-0.46,0.839-0.84,1.401-1.094   c1.841-0.832,3.734-1.041,5.541-0.889c0.302-0.018,0.603-0.026,0.904-0.025c0.071-0.061,0.137-0.118,0.238-0.205V21   C37.228,11.002,35.779,6.2,35.72,6.006z" fill="#f9d70b"/><path d="M25.984,33c-0.022,0-0.045-0.001-0.068-0.002c-0.551-0.037-0.968-0.514-0.931-1.065   c0.486-7.233-3.005-7.919-3.154-7.944c-0.538-0.093-0.911-0.601-0.828-1.14s0.574-0.91,1.115-0.84   c0.224,0.031,5.48,0.857,4.862,10.059C26.945,32.595,26.505,33,25.984,33z" fill="#a4e869"/><path d="M27.984,54c-0.043,0-0.086-0.003-0.129-0.008c-4.963-0.639-6.01-4.896-5.871-7.057   c0.036-0.551,0.52-0.948,1.063-0.934c0.55,0.036,0.967,0.509,0.934,1.059c-0.025,0.449-0.123,4.4,4.129,4.947   c0.548,0.071,0.935,0.572,0.864,1.12C28.91,53.631,28.48,54,27.984,54z" fill="#a4e869"/><path d="M33.981,33.999c-0.464,0-0.88-0.325-0.978-0.798c-0.028-0.138-0.674-3.399,1.186-5.238   c1.117-1.104,2.801-1.418,5.007-0.94c0.54,0.118,0.882,0.65,0.764,1.19c-0.118,0.539-0.648,0.883-1.19,0.765   c-1.498-0.33-2.566-0.19-3.171,0.404c-0.905,0.89-0.766,2.77-0.636,3.419c0.108,0.541-0.241,1.068-0.781,1.178   C34.114,33.992,34.047,33.999,33.981,33.999z" fill="#88c057"/><path d="M37.718,21.228h-2.543V18.04h2.359c-0.052-0.695-0.107-1.367-0.166-2h-2.193v-3.188h1.837   c-0.094-0.722-0.19-1.394-0.285-2h-1.552V7.663h0.959c-0.23-1.043-0.395-1.594-0.414-1.657c-0.003-0.01-0.004-0.011-0.008-0.021   c-0.044-0.115-0.093-0.212-0.139-0.322h-0.399V4.775c-1.289-2.561-3.035-3.752-4.389-4.301h-0.799V0.206   C29.227,0,28.718,0,28.718,0s-0.28-0.001-0.732,0.081v0.393H26.65c-1.174,0.475-2.642,1.438-3.853,3.352v1.837h-0.935   c-0.045,0.11-0.095,0.208-0.139,0.322c-0.004,0.01-0.005,0.012-0.008,0.022c-0.02,0.065-0.184,0.612-0.414,1.656h1.496v3.188   h-2.086c-0.096,0.608-0.192,1.274-0.286,2h2.372v3.188h-2.727c-0.028,0.301-0.057,0.601-0.084,0.916   c-0.004,0.05,0.022,0.091,0.039,0.136c1.687,0.157,3.325,0.572,4.771,1.359V18.04h3.188v3.188h-0.101   c0.791,1.149,1.4,2.575,1.75,4.349c0.103-0.129,0.232-0.234,0.351-0.349v-2h3.188v0.559c0.669-0.141,1.338-0.215,2-0.233v-0.326   h2.543V21.228z M27.986,16.04h-3.188v-3.188h3.188V16.04z M27.986,10.851h-3.188V7.663h3.188V10.851z M27.986,5.663h-3.188V2.474   h3.188V5.663z M33.174,21.228h-3.188V18.04h3.188V21.228z M33.174,16.04h-3.188v-3.188h3.188V16.04z M33.174,10.851h-3.188V7.663   h3.188V10.851z M33.174,5.663h-3.188V2.474h3.188V5.663z" fill="#f1b501"/></g><g transform="matrix(0.05400291085243225 -0.008526775054633617 0.008526775054633617 0.05400291085243225 311.7826232910156 313.69830322265625)" id="L1_9"><path d="m51.26 299.28-3.95 22.27-20.12 14.41c-7.4-5.47-16.06-12.13-16.19-16.5-.22-7.36 8.97-19.14 8.97-19.14 6.13-3.49 22.42-.62 31.29-1.04z" fill="#706a37"/><path d="m401.391 116.429 6.7-13.51c11.16 3.95 21.6 5.06 28.3 8.58 37.83 19.8 63.86 79.77 64.55 115.63 1.77 92.26-35.53 158.02-80.89 200.07-17.22 15.96-47.86 39.58-97.27 42.67-2.42.15-5.51.49-8.83.82l10.17-26.45-15.14-18.98c9.97-13.27 23.98-28.1 34.28-42.06 25.63-22.8 47.36-54.42 61.65-98.69 11.93-36.96 17.91-104.8-7.48-140.61-4.49-6.35-13.54-12.24-21.91-21.06l23.96-2.56z" fill="#fff27d"/><path d="m500.942 227.13c-.691-35.861-26.721-95.831-64.551-115.631-6.7-3.52-17.14-4.63-28.3-8.58l-6.7 13.51-1.909 3.85-.063.007c22.448 25.617 37.567 62.354 39.372 87.684 6.553 92.044-27.286 159.65-70.4 204-9.761 10.03-24.142 23.03-44.584 33.088l-9.855 25.632c3.319-.331 6.41-.671 8.83-.821 49.41-3.09 80.05-26.71 97.269-42.669 45.361-42.051 82.66-107.81 80.891-200.07z" fill="#ffe33b"/><path d="m143.1 391.229-9.76-18.16c18.84-8.86 54.85-21.82 69.33-26.78 56.09-19.21 104.56-86 118.02-142.83 3.45-14.58 7.37-27.97 21.61-69.29a20.9 20.9 0 0 0 1.01-4.62l16.16 5.25 16.04-11.96h.01c8.37 8.82 17.42 14.71 21.91 21.06 25.39 35.81 19.41 103.65 7.48 140.61-14.29 44.27-36.02 75.89-61.65 98.69-26.86 23.89-58 38.12-89.37 47.1-23.28 6.67-78.15 10.16-128.84-9.78z" fill="#fff27d"/><path d="m397.431 143.9c-4.489-6.35-13.54-12.24-21.91-21.06h-.01l-10.722 8c11.83 38.109 3.027 91.233-8.821 121.959-16.735 43.405-40.194 73.764-67.055 95.1-28.15 22.356-60.035 34.828-91.857 42.045-11.822 2.684-31.505 4.131-54.426 2.054l-17.579 28.526c50.691 19.94 105.561 16.45 128.84 9.78 31.37-8.979 62.511-23.21 89.37-47.1 25.63-22.8 47.361-54.421 61.651-98.69 11.929-36.965 17.91-104.805-7.481-140.614z" fill="#f9d438"/><path d="m47.311 321.549 3.95-22.27a19.553 19.553 0 0 0 2.79-.3c16.29-3.12 54.9-6.56 73.23-8.37 45.98-4.53 120.49-50.58 147.47-100.36 6.92-12.77 11.59-26.21 35.38-61.26a18.959 18.959 0 0 0 2.08-4.09l28.81 4.55 2.24.08.05.02a20.9 20.9 0 0 1 -1.01 4.62c-14.24 41.32-18.16 54.71-21.61 69.29-13.46 56.83-61.93 123.62-118.02 142.83-14.48 4.96-50.49 17.92-69.33 26.78-4.29 2.02-13.05 3.35-20.74 5.26-20.54-4.11-51.87-15.88-78.32-37.04-1.89-1.51-4.41-3.34-7.09-5.33z" fill="#f8ee4f"/><path d="m312.211 124.9c-.539 1.46-30.539 52.58-37.459 65.351-26.981 49.779-101.49 95.829-147.471 100.359-18.33 1.81-56.939 5.25-73.23 8.37a19.394 19.394 0 0 1 -2.789.3l-3.951 22.27s52.07 12.792 92.416 2.886c44.87-11.018 120.49-50.581 147.47-100.36 6.92-12.77 44.6-96.082 44.6-96.082z" fill="#fffac1"/><path d="m308.981 425.259 15.14 18.98-10.17 26.45c-9.16.92-20.05 1.81-23.08-1.34-5.11-5.3-6.23-20.19-6.23-20.19 2.45-7.5 19.62-17.63 24.34-23.9z" fill="#7f7841"/><path d="m375.521 122.839h-.01l-16.04 11.96-16.16-5.25c2.01-17.99-15.16-42.52-15.16-42.52l.03-13.14s-10.81-16.21-3.57-29.37a4.32 4.32 0 0 1 3.53-1.92c0-.01.01 0 .01 0 7.16-.89 21.48 5.46 21.48 5.46.64.69 1.24 1.36 1.79 2.03 9.29 11.29 5.66 19.97 5.87 28.15.54 21.51 8.97 34.85 18.23 44.6z" fill="#706a37"/><path d="m328.151 87.029s17.17 24.53 15.16 42.52l-.05-.02-2.24-.08-28.81-4.55c6.06-16.35-5.98-43.86-5.98-43.86l5.94-12.15s-6.02-17.97 4.1-28.44l11.87 2.15a4.32 4.32 0 0 0 -3.53 1.92c-7.24 13.16 3.57 29.37 3.57 29.37z" fill="#8c8448"/><path d="m143.638 397.233c-.373 0-.594 0-.655 0a6 6 0 0 1 .237-12 150.583 150.583 0 0 0 28.854-3.233 6 6 0 1 1 2.356 11.767 165.131 165.131 0 0 1 -30.792 3.466z" fill="#ffe33b"/><path d="m455.605 171.711a6 6 0 0 1 -5.421-3.423c-16.7-35.089-31.873-43.728-49.527-45.9a6 6 0 0 1 1.469-11.91c31.592 3.893 46.976 27.608 58.894 52.656a6 6 0 0 1 -5.415 8.58z" fill="#f9d438"/><path d="m408.091 102.919-6.7 13.51-1.91 3.85-23.96 2.56c-9.26-9.75-17.69-23.09-18.23-44.6-.21-8.18 3.42-16.86-5.87-28.15l1.17-.41c15.41 5.56 15.97 15.32 19.99 22.7 9.98 18.34 23.18 26.17 35.51 30.54z" fill="#8c8448"/><path d="m112.6 378.329c7.69-1.91 16.45-3.24 20.74-5.26l9.76 18.16-18.05 29.29c-8.71-3.43-27.23-9.47-29.01-15.33-2.2-7.26 3.78-21.47 3.78-21.47 2.391-2.39 7.321-4.04 12.78-5.39z" fill="#706a37"/></g><g transform="matrix(0.47282546758651733 -0.0556265264749527 0.0556265264749527 0.47282546758651733 62.27287292480469 100.01251220703125)" id="L1_10"><path d="M47.923,33.056c0.388-0.431,0.935-0.702,1.587-0.755c0.217-0.018,0.446-0.011,0.685,0.021   c0.198,0.027,0.394,0.077,0.587,0.14c0.178,0.054,0.352,0.127,0.525,0.206v-2.234c0-1.875-0.871-3.644-2.357-4.788L31.54,9.176   c-0.549,0.451-1.343,0.605-2.237,0.329c-1.654-0.512-2.995-2.268-2.995-3.923c0-0.426,0.091-0.801,0.251-1.118l-2.98-2.819   C21.407-0.01,18.97-0.37,17.308,0.357L2.479,7.51c-1.341,0.579-2.172,1.94-2.172,3.44c0,0.012,0,0.012,0,0.009v15.747   c0.463-0.085,0.976-0.066,1.527,0.105c1.918,0.594,3.473,2.63,3.473,4.548s-1.555,2.992-3.473,2.398   c-0.551-0.17-1.064-0.469-1.527-0.841v2.163c0,1.688,1.149,3.159,2.786,3.568l43.644,12.857c2.321,0.58,4.57-1.175,4.57-3.568   v-8.341l-0.001,0c-0.939-0.152-1.85-0.677-2.567-1.417c-0.016-0.016-0.029-0.035-0.044-0.052c-0.161-0.17-0.314-0.347-0.453-0.536   c-0.046-0.062-0.081-0.131-0.124-0.195c-0.1-0.15-0.203-0.298-0.287-0.457c-0.067-0.125-0.115-0.258-0.171-0.388   c-0.045-0.105-0.101-0.208-0.138-0.315c-0.084-0.242-0.148-0.489-0.189-0.739c-0.041-0.252-0.057-0.494-0.05-0.725   c0.014-0.462,0.122-0.879,0.307-1.233C47.682,33.36,47.794,33.199,47.923,33.056z" fill="#eeaf4b"/><path d="M50.196,32.322c0.379,0.052,0.751,0.181,1.112,0.346v-2.235c0-1.735-1.212-3.233-2.908-3.596   l-19.167-5.708c0.01,0.103,0.03,0.206,0.03,0.308c0,1.655-1.341,2.581-2.995,2.068c-1.654-0.512-2.995-2.268-2.995-3.923   c0-0.078,0.017-0.147,0.023-0.222L2.244,13.091c-1.171-0.225-1.746-1.116-1.871-2.126L0.308,10.95v15.755   c0.463-0.085,0.976-0.066,1.527,0.105c1.918,0.594,3.473,2.63,3.473,4.548s-1.555,2.992-3.473,2.398   c-0.551-0.17-1.064-0.469-1.527-0.841v2.163c0,1.688,1.149,3.159,2.786,3.568l43.644,12.857c2.321,0.58,4.57-1.175,4.57-3.568   v-8.341c-1.88-0.304-3.649-2.115-3.975-4.099C47.002,33.482,48.284,32.061,50.196,32.322z" fill="#fcdf76"/><path d="M26.124,32.007c0,2.254-1.827,3.515-4.081,2.818c-2.254-0.698-4.081-3.09-4.081-5.344   s1.827-3.515,4.081-2.818S26.124,29.753,26.124,32.007z" fill="#f4c44e"/><path d="M22.043,26.663c-1.672-0.518-3.106,0.047-3.736,1.292c0.63,1.635,2.064,3.087,3.736,3.605   s3.106-0.047,3.736-1.292C25.149,28.633,23.715,27.18,22.043,26.663z" fill="#eeaf4b"/><path d="M43.021,37.539c0,1.578-1.279,2.461-2.857,1.972c-1.578-0.488-2.857-2.163-2.857-3.741   c0-1.578,1.279-2.461,2.857-1.972C41.742,34.287,43.021,35.962,43.021,37.539z" fill="#f4c44e"/><path d="M15.021,35.539c0,1.578-1.279,2.461-2.857,1.972s-2.857-2.163-2.857-3.741   c0-1.578,1.279-2.461,2.857-1.972S15.021,33.962,15.021,35.539z" fill="#eeaf4b"/><path d="M35.021,43.165c0,1.025-0.831,1.599-1.857,1.282c-1.025-0.317-1.857-1.406-1.857-2.431   s0.831-1.599,1.857-1.282C34.19,41.051,35.021,42.139,35.021,43.165z" fill="#eeaf4b"/><path d="M34.308,31.277c0,1.025-0.831,1.599-1.857,1.282c-1.025-0.317-1.857-1.406-1.857-2.431   s0.831-1.599,1.857-1.282C33.476,29.163,34.308,30.251,34.308,31.277z" fill="#eeaf4b"/><path d="M9.308,20.775c0,1.127-0.914,1.758-2.04,1.409c-1.127-0.349-2.04-1.545-2.04-2.672   s0.914-1.758,2.04-1.409S9.308,19.648,9.308,20.775z" fill="#f4c44e"/><path d="M29.263,21.437c0,1.654-1.341,2.58-2.995,2.068c-1.654-0.512-2.995-2.268-2.995-3.923   c0-1.654,1.341-2.58,2.995-2.068C27.921,18.026,29.263,19.782,29.263,21.437z" fill="#f4c44e"/></g><g transform="matrix(0.06303421407938004 0 0 0.06303421407938004 120.86322784423828 281.9053039550781)" id="L1_11"><path d="m90.011719 97.511719v60.003906c0 41.40625-33.605469 75.007813-75.011719 75.007813h-15v-45.003907c0-24.601562 12.003906-46.207031 30.605469-60.007812-18.601563-13.800781-30.605469-35.402344-30.605469-60.003907v-45.007812h15c41.40625 0 75.011719 33.605469 75.011719 75.011719zm0 0" fill="#ffcebf"/><path d="m391.945312 210.324219-11.402343 33.304687c-21 7.5-42.605469 11.398438-64.507813 11.398438-92.410156 0-193.523437-65.105469-262.230468-127.511719 68.707031-62.410156 169.820312-127.515625 262.230468-127.515625 18.601563 0 36.601563 3.300781 54.007813 8.398438l6.601562 44.707031c-11.402343 23.101562-16.804687 48.90625-15.304687 74.410156 1.5 29.101563 11.402344 57.902344 30.605468 82.808594zm0 0" fill="#f89580"/><path d="m30.605469 127.511719h59.40625v30.003906c0 41.40625-33.605469 75.007813-75.011719 75.007813h-15v-45.003907c0-24.601562 12.003906-46.207031 30.605469-60.007812zm0 0" fill="#ffa78f"/><path d="m361.339844 127.511719c1.5 29.105469 11.402344 57.90625 30.605468 82.8125l-11.402343 33.300781c-21 7.503906-42.605469 11.402344-64.507813 11.402344-92.410156 0-193.523437-65.109375-262.230468-127.515625zm0 0" fill="#ec806b"/><path d="m370.042969 7.5c-26.105469 37.804688-40.503907 78.609375-38.707031 120.011719 1.199218 39.003906 16.804687 78.609375 48.90625 116.714843 56.40625-23.402343 99.355468-59.710937 131.757812-116.714843-33.304688-58.203125-78.351562-97.507813-141.957031-120.011719zm0 0" fill="#ffcebf"/><path d="m384.734375 127.496094 21.300781-21.304688 21.300782 21.304688-21.300782 21.300781zm0 0" fill="#68544f"/><path d="m241.027344 82.507812c-27.601563 0-47.707032 22.203126-63.007813 45.003907 15.300781 22.804687 35.40625 45.007812 63.007813 45.007812 27.601562 0 47.707031-22.203125 63.003906-45.007812-15.296875-22.800781-35.402344-45.003907-63.003906-45.003907zm0 0" fill="#ffcebf"/><path d="m178.019531 127.511719h126.015625c-15.300781 22.804687-35.40625 45.007812-63.007812 45.007812-27.601563 0-47.707032-22.203125-63.007813-45.007812zm0 0" fill="#ffa78f"/><path d="m512 127.511719c-32.40625 57.007812-75.351562 93.3125-131.757812 116.714843-32.101563-38.105468-47.707032-77.710937-48.90625-116.714843zm0 0" fill="#ffa78f"/><path d="m427.347656 127.511719-21.300781 21.304687-21.304687-21.304687zm0 0" fill="#53433f"/></g><g transform="matrix(0.37165677547454834 0 0 0.37165677547454834 293.7607421875 227.92848205566406)" id="L1_12"><path d="M50.841,18.962c0.004,0.003,0.008,0.007,0.012,0.01l-0.022-0.015   C50.835,18.958,50.838,18.96,50.841,18.962c-1.072-0.759-1.505-1.993-0.965-2.762c-0.542,0.772-1.858,0.783-2.939,0.025   c-1.081-0.759-1.519-2-0.977-2.772c-0.542,0.772-1.858,0.783-2.939,0.025c-1.081-0.759-1.518-2-0.977-2.772   c-0.5,0.713-1.658,0.769-2.684,0.178c-1.531,1.114-3.23,2.625-5.094,4.679c0,0-8.066,7.537-19.445,9.612   c-1.052,0.192-2.096,0.447-3.077,0.873c-0.44,0.191-1.418,0.702-1.418,0.702C3.63,30.453,0.055,38.358,2.156,46.071   c1.886,6.926,7.792,11.667,14.517,12.413c3.086,0.342,6.191-0.331,9.001-1.651c6.256-2.938,19.014-11.419,24.29-33.11   c0,0,0.796-1.966,1.364-4.514C51.161,19.148,50.998,19.07,50.841,18.962z" fill="#583e68"/><path d="M50.555,7.66c-0.552,0-1-0.447-1-1s0.448-1,1-1c1.922,0,3.506-0.587,4.134-1.531   c0.451-0.679,0.438-1.601-0.041-2.741c-0.213-0.509,0.026-1.095,0.536-1.309c0.511-0.216,1.095,0.026,1.309,0.535   c0.938,2.237,0.443,3.748-0.138,4.622C55.346,6.754,53.178,7.66,50.555,7.66z" fill="#6a3311"/><path d="M39.085,10.715c-0.994-0.698-1.26-2.034-0.593-2.984c0.667-0.951,2.014-1.156,3.008-0.458   c2.134-3.042,5.978-2.773,9.16-0.54c3.182,2.233,4.62,5.669,2.486,8.711c0.994,0.698,1.26,2.034,0.593,2.984   s-1.913,1.226-2.907,0.529l0.022,0.015c-1.081-0.759-1.519-2-0.977-2.772c-0.542,0.772-1.858,0.783-2.939,0.025   c-1.081-0.759-1.519-2-0.977-2.772c-0.542,0.772-1.858,0.783-2.939,0.025c-1.081-0.759-1.519-2-0.977-2.772   c-0.542,0.772-1.858,0.783-2.939,0.025" fill="#659c35"/><path d="M9.302,50.316c-0.337,0-0.667-0.171-0.855-0.479c-2.383-3.912-2.656-9.118-0.711-13.588   c0.22-0.507,0.81-0.74,1.316-0.519c0.506,0.221,0.738,0.81,0.518,1.315c-1.689,3.883-1.464,8.386,0.585,11.75   c0.287,0.472,0.138,1.087-0.333,1.374C9.659,50.269,9.479,50.316,9.302,50.316z" fill="#6f58a8"/><path d="M10.646,34.449c-0.231,0-0.463-0.08-0.652-0.242c-0.418-0.361-0.465-0.992-0.104-1.41   c1.227-1.424,2.77-2.539,4.462-3.228c0.511-0.207,1.095,0.039,1.303,0.551c0.208,0.511-0.038,1.095-0.55,1.303   c-1.4,0.568-2.68,1.495-3.7,2.679C11.206,34.331,10.926,34.449,10.646,34.449z" fill="#6f58a8"/></g></defs><g fi:class="KUsePattern"><pattern id="pattern_L1_0" width="350" height="350" patternUnits="userSpaceOnUse"><use xlink:href="#L1_0" x="-350" y="-350"/><use xlink:href="#L1_0" x="0" y="-350"/><use xlink:href="#L1_0" x="350" y="-350"/><use xlink:href="#L1_0" x="-350" y="0"/><use xlink:href="#L1_0" x="0" y="0"/><use xlink:href="#L1_0" x="350" y="0"/><use xlink:href="#L1_0" x="-350" y="350"/><use xlink:href="#L1_0" x="0" y="350"/><use xlink:href="#L1_0" x="350" y="350"/></pattern><rect x="0" y="0" width="100%" height="100%" fill="url(#pattern_L1_0)"/></g><g fi:class="KUsePattern"><pattern id="pattern_L1_2" width="350" height="350" patternUnits="userSpaceOnUse"><use xlink:href="#L1_2" x="-350" y="-350"/><use xlink:href="#L1_2" x="0" y="-350"/><use xlink:href="#L1_2" x="350" y="-350"/><use xlink:href="#L1_2" x="-350" y="0"/><use xlink:href="#L1_2" x="0" y="0"/><use xlink:href="#L1_2" x="350" y="0"/><use xlink:href="#L1_2" x="-350" y="350"/><use xlink:href="#L1_2" x="0" y="350"/><use xlink:href="#L1_2" x="350" y="350"/></pattern><rect x="0" y="0" width="100%" height="100%" fill="url(#pattern_L1_2)"/></g><g fi:class="KUsePattern"><pattern id="pattern_L1_3" width="350" height="350" patternUnits="userSpaceOnUse"><use xlink:href="#L1_3" x="-350" y="-350"/><use xlink:href="#L1_3" x="0" y="-350"/><use xlink:href="#L1_3" x="350" y="-350"/><use xlink:href="#L1_3" x="-350" y="0"/><use xlink:href="#L1_3" x="0" y="0"/><use xlink:href="#L1_3" x="350" y="0"/><use xlink:href="#L1_3" x="-350" y="350"/><use xlink:href="#L1_3" x="0" y="350"/><use xlink:href="#L1_3" x="350" y="350"/></pattern><rect x="0" y="0" width="100%" height="100%" fill="url(#pattern_L1_3)"/></g><g fi:class="KUsePattern"><pattern id="pattern_L1_4" width="350" height="350" patternUnits="userSpaceOnUse"><use xlink:href="#L1_4" x="-350" y="-350"/><use xlink:href="#L1_4" x="0" y="-350"/><use xlink:href="#L1_4" x="350" y="-350"/><use xlink:href="#L1_4" x="-350" y="0"/><use xlink:href="#L1_4" x="0" y="0"/><use xlink:href="#L1_4" x="350" y="0"/><use xlink:href="#L1_4" x="-350" y="350"/><use xlink:href="#L1_4" x="0" y="350"/><use xlink:href="#L1_4" x="350" y="350"/></pattern><rect x="0" y="0" width="100%" height="100%" fill="url(#pattern_L1_4)"/></g><g fi:class="KUsePattern"><pattern id="pattern_L1_5" width="350" height="350" patternUnits="userSpaceOnUse"><use xlink:href="#L1_5" x="-350" y="-350"/><use xlink:href="#L1_5" x="0" y="-350"/><use xlink:href="#L1_5" x="350" y="-350"/><use xlink:href="#L1_5" x="-350" y="0"/><use xlink:href="#L1_5" x="0" y="0"/><use xlink:href="#L1_5" x="350" y="0"/><use xlink:href="#L1_5" x="-350" y="350"/><use xlink:href="#L1_5" x="0" y="350"/><use xlink:href="#L1_5" x="350" y="350"/></pattern><rect x="0" y="0" width="100%" height="100%" fill="url(#pattern_L1_5)"/></g><g fi:class="KUsePattern"><pattern id="pattern_L1_6" width="350" height="350" patternUnits="userSpaceOnUse"><use xlink:href="#L1_6" x="-350" y="-350"/><use xlink:href="#L1_6" x="0" y="-350"/><use xlink:href="#L1_6" x="350" y="-350"/><use xlink:href="#L1_6" x="-350" y="0"/><use xlink:href="#L1_6" x="0" y="0"/><use xlink:href="#L1_6" x="350" y="0"/><use xlink:href="#L1_6" x="-350" y="350"/><use xlink:href="#L1_6" x="0" y="350"/><use xlink:href="#L1_6" x="350" y="350"/></pattern><rect x="0" y="0" width="100%" height="100%" fill="url(#pattern_L1_6)"/></g><g fi:class="KUsePattern"><pattern id="pattern_L1_7" width="350" height="350" patternUnits="userSpaceOnUse"><use xlink:href="#L1_7" x="-350" y="-350"/><use xlink:href="#L1_7" x="0" y="-350"/><use xlink:href="#L1_7" x="350" y="-350"/><use xlink:href="#L1_7" x="-350" y="0"/><use xlink:href="#L1_7" x="0" y="0"/><use xlink:href="#L1_7" x="350" y="0"/><use xlink:href="#L1_7" x="-350" y="350"/><use xlink:href="#L1_7" x="0" y="350"/><use xlink:href="#L1_7" x="350" y="350"/></pattern><rect x="0" y="0" width="100%" height="100%" fill="url(#pattern_L1_7)"/></g><g fi:class="KUsePattern"><pattern id="pattern_L1_8" width="350" height="350" patternUnits="userSpaceOnUse"><use xlink:href="#L1_8" x="-350" y="-350"/><use xlink:href="#L1_8" x="0" y="-350"/><use xlink:href="#L1_8" x="350" y="-350"/><use xlink:href="#L1_8" x="-350" y="0"/><use xlink:href="#L1_8" x="0" y="0"/><use xlink:href="#L1_8" x="350" y="0"/><use xlink:href="#L1_8" x="-350" y="350"/><use xlink:href="#L1_8" x="0" y="350"/><use xlink:href="#L1_8" x="350" y="350"/></pattern><rect x="0" y="0" width="100%" height="100%" fill="url(#pattern_L1_8)"/></g><g fi:class="KUsePattern"><pattern id="pattern_L1_9" width="350" height="350" patternUnits="userSpaceOnUse"><use xlink:href="#L1_9" x="-350" y="-350"/><use xlink:href="#L1_9" x="0" y="-350"/><use xlink:href="#L1_9" x="350" y="-350"/><use xlink:href="#L1_9" x="-350" y="0"/><use xlink:href="#L1_9" x="0" y="0"/><use xlink:href="#L1_9" x="350" y="0"/><use xlink:href="#L1_9" x="-350" y="350"/><use xlink:href="#L1_9" x="0" y="350"/><use xlink:href="#L1_9" x="350" y="350"/></pattern><rect x="0" y="0" width="100%" height="100%" fill="url(#pattern_L1_9)"/></g><g fi:class="KUsePattern"><pattern id="pattern_L1_10" width="350" height="350" patternUnits="userSpaceOnUse"><use xlink:href="#L1_10" x="-350" y="-350"/><use xlink:href="#L1_10" x="0" y="-350"/><use xlink:href="#L1_10" x="350" y="-350"/><use xlink:href="#L1_10" x="-350" y="0"/><use xlink:href="#L1_10" x="0" y="0"/><use xlink:href="#L1_10" x="350" y="0"/><use xlink:href="#L1_10" x="-350" y="350"/><use xlink:href="#L1_10" x="0" y="350"/><use xlink:href="#L1_10" x="350" y="350"/></pattern><rect x="0" y="0" width="100%" height="100%" fill="url(#pattern_L1_10)"/></g><g fi:class="KUsePattern"><pattern id="pattern_L1_11" width="350" height="350" patternUnits="userSpaceOnUse"><use xlink:href="#L1_11" x="-350" y="-350"/><use xlink:href="#L1_11" x="0" y="-350"/><use xlink:href="#L1_11" x="350" y="-350"/><use xlink:href="#L1_11" x="-350" y="0"/><use xlink:href="#L1_11" x="0" y="0"/><use xlink:href="#L1_11" x="350" y="0"/><use xlink:href="#L1_11" x="-350" y="350"/><use xlink:href="#L1_11" x="0" y="350"/><use xlink:href="#L1_11" x="350" y="350"/></pattern><rect x="0" y="0" width="100%" height="100%" fill="url(#pattern_L1_11)"/></g><g fi:class="KUsePattern"><pattern id="pattern_L1_12" width="350" height="350" patternUnits="userSpaceOnUse"><use xlink:href="#L1_12" x="-350" y="-350"/><use xlink:href="#L1_12" x="0" y="-350"/><use xlink:href="#L1_12" x="350" y="-350"/><use xlink:href="#L1_12" x="-350" y="0"/><use xlink:href="#L1_12" x="0" y="0"/><use xlink:href="#L1_12" x="350" y="0"/><use xlink:href="#L1_12" x="-350" y="350"/><use xlink:href="#L1_12" x="0" y="350"/><use xlink:href="#L1_12" x="350" y="350"/></pattern><rect x="0" y="0" width="100%" height="100%" fill="url(#pattern_L1_12)"/></g></svg>