<svg width="2154" height="1080" viewBox="0 0 3015.6 1512" xmlns="http://www.w3.org/2000/svg" xmlns:xlink="http://www.w3.org/1999/xlink" xmlns:fi="http://pattern.flaticon.com/"><rect width="100%" height="100%" fill="#fff"/><defs><g id="prefix__a"><path d="M34.685 22.808s12.342-7.316 20.178 3.022c0 0 2.032 2.35.47 4.6-1.537 2.212-4.968 1.742-6.676-.603-1.541-2.115-5.254-4.8-13.972-7.019z" fill="#88c057" transform="matrix(.50508 -.0505 .0505 .50508 220.158 296.987)"/><path d="M34.685 22.808s7.506-12.152-2.145-19.301c0 0-3.185-2.863-6.062-1.844-2.676.947-2.746 4.678-.284 6.089 2.698 1.547 6.394 5.411 8.491 15.056zM54.604 26.466s.067.086.155.205c.257-.23.506-.478.732-.768 2.084-2.67.414-4.736.414-4.736-6.186-9.306-20.584.807-20.584.807.693.048 1.341.11 1.968.176 4.117-1.502 11.821-2.932 17.315 4.316z" fill="#88c057" transform="matrix(.50508 -.0505 .0505 .50508 220.158 296.987)"/><path d="M32.541 3.507c7.445 5.514 4.681 14.002 3.028 17.596.003.081.009.154.012.235 0 0 10.275-14.236 1.555-19.836 0 0-2.779-2.377-5.999-.74a5.38 5.38 0 00-1.428 1.056c1.611.594 2.832 1.689 2.832 1.689z" fill="#a4e869" transform="matrix(.50508 -.0505 .0505 .50508 220.158 296.987)"/><path d="M50.459 6.131c-3.647-2.363-8.276 1.205-8.276 1.205-.768.92-1.465 1.91-2.108 2.927-.638 4.649-3.667 9.674-5.173 11.934-.089.314-.164.589-.216.787 1.745-1.172 6.828-4.343 11.824-5.164 1.24-.822 2.422-1.725 3.451-2.705 5.515-5.251.498-8.984.498-8.984z" fill="#659c35" transform="matrix(.50508 -.0505 .0505 .50508 220.158 296.987)"/><path d="M34.685 22.808s12.342-7.316 20.178 3.022c0 0 2.032 2.35.47 4.6-1.537 2.212-4.968 1.742-6.676-.603-1.541-2.115-5.254-4.8-13.972-7.019z" fill="#a4e869" transform="matrix(.50508 -.0505 .0505 .50508 220.158 296.987)"/><path d="M35.376 21.701c-.281.547-.472.857-.472.857s.468-.276 1.272-.643a47.202 47.202 0 00-.8-.214z" fill="#f2681c" transform="matrix(.50508 -.0505 .0505 .50508 220.158 296.987)"/><path d="M41.809 28.277c.421-1.172.395-2.334.132-3.429-1.879-.789-4.186-1.565-7.037-2.29-.691-3.177-1.556-5.716-2.501-7.762-1.303-.453-2.728-.614-4.17-.096C23.708 16.326 3.81 44.955.089 54.937c-.35.939.387 1.675 1.325 1.325 9.982-3.721 38.769-23.461 40.395-27.985z" fill="#ed8f20" transform="matrix(.50508 -.0505 .0505 .50508 220.158 296.987)"/><g fill="#dd7017"><path d="M8.236 46.857a12.2 12.2 0 01-1.947-1.168 1 1 0 00-1.182 1.612c.718.527 1.481.985 2.267 1.36a1.001 1.001 0 00.862-1.804zM39.161 27.824c-2.046-.78-3.945-2.182-5.642-4.167a1 1 0 10-1.52 1.3c1.917 2.242 4.087 3.836 6.45 4.737a1.002 1.002 0 001.291-.579 1.002 1.002 0 00-.579-1.291zM22.722 19.948a1 1 0 01.748.854c.179 1.632 1.022 3.747 2.505 4.792a1 1 0 11-1.154 1.634c-2.001-1.411-2.996-3.947-3.284-5.847" transform="matrix(.50508 -.0505 .0505 .50508 220.158 296.987)"/><path d="M24.821 27.228a.997.997 0 001.394-.24 1 1 0 00-.24-1.394c-1.482-1.046-2.326-3.161-2.505-4.792a1 1 0 00-.748-.854c-.385.457-.779.931-1.185 1.432.288 1.901 1.283 4.437 3.284 5.848zM30.348 38.578c-1.89-.306-4.369-1.302-5.758-3.271a1.001 1.001 0 011.635-1.153c1.045 1.481 3.16 2.326 4.792 2.505a.99.99 0 01.856.782" transform="matrix(.50508 -.0505 .0505 .50508 220.158 296.987)"/><path d="M31.018 36.659c-1.633-.179-3.748-1.023-4.792-2.505a1 1 0 00-1.635 1.153c1.389 1.969 3.868 2.965 5.758 3.271.519-.383 1.028-.761 1.525-1.136a.991.991 0 00-.856-.783z" transform="matrix(.50508 -.0505 .0505 .50508 220.158 296.987)"/><g><path d="M14.756 30.41c.399.094.72.424.768.856.112 1.025.635 2.349 1.549 2.995a1 1 0 11-1.154 1.634c-1.328-.937-2.04-2.56-2.299-3.865" transform="matrix(.50508 -.0505 .0505 .50508 220.158 296.987)"/><path d="M15.92 35.895a.999.999 0 101.154-1.634c-.915-.646-1.437-1.969-1.549-2.995a.992.992 0 00-.768-.856 227.29 227.29 0 00-1.136 1.62c.259 1.305.971 2.928 2.299 3.865z" transform="matrix(.50508 -.0505 .0505 .50508 220.158 296.987)"/></g><g><path d="M18.024 47.047c-1.357-.177-3.244-.888-4.285-2.365a1 1 0 011.634-1.154c.646.915 1.969 1.437 2.994 1.549a1 1 0 01.885 1.103c-.003.031-.02.057-.026.087" transform="matrix(.50508 -.0505 .0505 .50508 220.158 296.987)"/><path d="M18.367 45.078c-1.025-.112-2.349-.635-2.994-1.549a1 1 0 10-1.634 1.154c1.042 1.477 2.928 2.188 4.285 2.365.4-.257.801-.518 1.202-.779.006-.03.023-.056.026-.087a1 1 0 00-.885-1.104z" transform="matrix(.50508 -.0505 .0505 .50508 220.158 296.987)"/></g></g></g><g transform="matrix(.44805 .084 -.084 .44805 3.599 26.102)" id="prefix__c"><path d="M36.486 12.899l-5.089-.419 1.884-4.746c.308-.775.696-1.499 1.139-2.177a23.913 23.913 0 00-9.655-2.027c-13.255 0-24 10.745-24 24s10.745 24 24 24 24-10.745 24-24a23.9 23.9 0 00-5.954-15.813 12.233 12.233 0 01-6.325 1.182z" fill="#ed8f20"/><circle cx="38" cy="18" r="2" fill="#ef771d"/><circle cx="43" cy="29" r="2" fill="#ef771d"/><circle cx="43" cy="23" r="2" fill="#ef771d"/><circle cx="37" cy="27" r="2" fill="#ef771d"/><circle cx="38" cy="34" r="2" fill="#ef771d"/><circle cx="20" cy="10" r="2" fill="#ef771d"/><circle cx="13" cy="13" r="2" fill="#ef771d"/><path d="M27.765 11.529s4.25.7 5.4 3.6" fill="#ed8f20"/><path d="M33.165 16.13c-.397 0-.773-.239-.93-.632-.925-2.331-4.599-2.976-4.635-2.982a1 1 0 01.326-1.973c.197.032 4.824.831 6.168 4.218a1 1 0 01-.929 1.369z" fill="#9b6026"/><path d="M28.365 14.529a9.796 9.796 0 013.787-2.567" fill="#ed8f20"/><path d="M28.364 15.529a1 1 0 01-.739-1.673 10.811 10.811 0 014.176-2.831 1.002 1.002 0 011.288.584 1.001 1.001 0 01-.585 1.288 8.796 8.796 0 00-3.4 2.304.995.995 0 01-.74.328z" fill="#9b6026"/><path d="M50.765.46L45.676.041a12.254 12.254 0 00-12.395 7.693l-1.884 4.746 5.089.419a12.255 12.255 0 0012.395-7.693L50.765.46z" fill="#659c35"/><path d="M31.958 11.068l-.561 1.413.718.059c6.258-6.111 13.059-8.117 13.803-8.164l.035-.559.413.413.158-.593-.444-.425c-.598-.132-7.583 1.797-14.122 7.856z" fill="#88c057"/></g><g id="prefix__e"><path d="M40.47 8.458c-2.562-1.642-7.374-3.93-11.997-1.816a.67.67 0 01-.952-.607V1.786C27.522.804 26.855 0 26.04 0h-2.223c-.815 0-1.482.804-1.482 1.786v4.501a.67.67 0 01-.802.661c-1.877-.387-6.751-.989-11.412 1.795-.638.381-.268 1.381.464 1.247 2.17-.397 5.026-.67 6.956.092a.674.674 0 01.124 1.189c-1.371.895-3.9 2.953-5.557 6.737-.282.644.51 1.221 1.053.774 2.117-1.744 5.6-4.107 8.554-3.726a.68.68 0 01.607.68c-.03 1.982-.005 8.716 1.632 11.265a.675.675 0 001.117.035c1.043-1.433 3.304-5.233 3.211-11.167a.677.677 0 01.697-.694c1.49.048 5.008.469 7.798 3.194.457.447 1.214.061 1.134-.573-.219-1.735-1.174-4.359-4.631-6.394-.525-.309-.436-1.095.155-1.24 1.194-.293 3.252-.572 6.644-.46.689.021.97-.873.391-1.244z" fill="#88c057" transform="matrix(.3995 .1175 -.1175 .3995 218.565 49.4)"/><path d="M41.248 9.99a.698.698 0 00-.314-.12c-.4-.049-.801-.095-1.201-.149-.143-.014-.287-.025-.429-.039-2.914-.048-4.743.206-5.846.474a.674.674 0 00-.175 1.244c3.457 2.035 4.411 4.659 4.63 6.393.08.634-.677 1.02-1.134.573-2.79-2.724-6.308-3.145-7.798-3.194a.676.676 0 00-.697.694c.092 5.934-2.168 9.734-3.211 11.167a.675.675 0 01-1.117-.035c-1.637-2.549-1.662-9.283-1.632-11.265a.681.681 0 00-.607-.68c-2.954-.382-6.437 1.982-8.554 3.726-.543.447-1.335-.13-1.053-.774 1.655-3.779 4.18-5.836 5.552-6.733a.674.674 0 00-.128-1.19 6.461 6.461 0 00-1.203-.324.735.735 0 00-.234-.004 57.35 57.35 0 00-7.119 1.411.718.718 0 00-.278.144C3.597 15.555.393 21.668.393 28.465c0 12.821 11.393 23.214 25.446 23.214s25.446-10.393 25.446-23.214c.001-7.537-3.937-14.235-10.037-18.475z" fill="#d13834" transform="matrix(.3995 .1175 -.1175 .3995 218.565 49.4)"/><path d="M5.791 34.636a.998.998 0 01-.861-.49A11.328 11.328 0 013.473 30a1 1 0 01.844-1.135.991.991 0 011.135.844 9.457 9.457 0 001.199 3.418 1 1 0 01-.86 1.509zM4.588 26.678a1 1 0 01-.999-1.069c.094-1.327.366-2.616.811-3.834a1.001 1.001 0 011.879.687 11.997 11.997 0 00-.694 3.285 1 1 0 01-.997.931z" fill="#ed7161" transform="matrix(.3995 .1175 -.1175 .3995 218.565 49.4)"/></g><g id="prefix__g"><path d="M45.146 13.699c0-.995-.563-1.851-1.387-2.307.39-.796.615-1.684.615-2.626 0-3.353-2.767-6.071-6.18-6.071-.892 0-1.738.189-2.504.524a5.04 5.04 0 00-4.062-2.042 5.033 5.033 0 00-4.398 2.554 5.833 5.833 0 00-3.327-1.036c-3.2 0-5.794 2.548-5.794 5.692 0 .235.019.466.047.693-2.274.769-3.91 2.883-3.91 5.378 0 1.946.995 3.662 2.511 4.688a4.847 4.847 0 00-.966 2.901c0 2.724 2.248 4.933 5.021 4.933a5.057 5.057 0 003.077-1.04 6.201 6.201 0 005.035 2.558 6.198 6.198 0 005.219-2.829 4.257 4.257 0 003.665 2.07c2.347 0 4.249-1.869 4.249-4.174 0-.517-.1-1.01-.275-1.467 1.524-.634 2.593-2.117 2.593-3.845 0-.818-.243-1.58-.658-2.224.846-.449 1.429-1.318 1.429-2.33z" fill="#88c057" transform="matrix(.51237 -.1281 .1281 .51237 292.625 123.05)"/><path d="M22.832 26.543a5.024 5.024 0 01-2.021.437c-2.773 0-5.021-2.209-5.021-4.933 0-1.086.361-2.086.966-2.901-1.516-1.026-2.511-2.742-2.511-4.688 0-.942.235-1.83.648-2.611-1.657-.985-3.838-.786-5.269.619a4.338 4.338 0 00-.346.389c-1.607-.77-3.599-.503-4.934.808a4.181 4.181 0 00-1.189 3.762 3.727 3.727 0 00-2.061 1.026 3.622 3.622 0 000 5.187c.61.6 1.38.945 2.175 1.042a4.455 4.455 0 001.278 3.946 4.644 4.644 0 004.258 1.208 3.066 3.066 0 00.819 2.982 3.2 3.2 0 004.468 0c.277-.272.488-.583.641-.914a3.202 3.202 0 003.421-.682c.438-.43.717-.956.844-1.509a2.028 2.028 0 001.999-.486 1.942 1.942 0 00.505-1.929c.477-.165.918-.432 1.33-.753zM55.484 19.249a4.212 4.212 0 00-.396-.34 4.175 4.175 0 00-.823-4.847 4.353 4.353 0 00-3.83-1.168 3.62 3.62 0 00-1.044-2.024 3.781 3.781 0 00-5.281 0c-.095.094-.174.198-.256.299-.033.074-.06.152-.095.224.824.455 1.387 1.312 1.387 2.307 0 1.012-.583 1.881-1.43 2.329.414.644.658 1.405.658 2.224 0 1.728-1.069 3.211-2.593 3.845.175.457.275.95.275 1.467 0 2.305-1.902 4.174-4.249 4.174a4.28 4.28 0 01-1.553-.295c.052.059.082.129.138.184.438.43.973.705 1.536.83a1.941 1.941 0 00.495 1.964 2.025 2.025 0 001.964.496c.221.62.578 1.203 1.083 1.698a4.654 4.654 0 006.499 0 4.485 4.485 0 001.036-1.569 3.769 3.769 0 003.229-1.025 3.623 3.623 0 00.946-3.615 4.307 4.307 0 002.304-1.174 4.179 4.179 0 000-5.984z" fill="#659c35" transform="matrix(.51237 -.1281 .1281 .51237 292.625 123.05)"/><path d="M40.387 30.918a2.028 2.028 0 01-1.964-.496 1.923 1.923 0 01-.561-1.104 1.768 1.768 0 00-.222-.635c-3.918 4.044-6.655 11.494-6.655 11.494 1.301-4.626 1.096-9.242.693-12.321a6.212 6.212 0 01-5.444.027c1.751 6.191.751 16.294.751 16.294-1.874-7.495-5.994-12.181-7.941-14.058a1.326 1.326 0 00-.352.393c-.14.254-.32.493-.539.709a3.2 3.2 0 01-3.421.682 3.093 3.093 0 01-.641.914c-.33.324-.717.555-1.127.706 5.021 0 10.78 9.994 11.523 20.655a1.501 1.501 0 001.498 1.392h5c.77 0 1.412-.577 1.499-1.341.459-4.056 1.876-21.012 9.746-21.012a4.64 4.64 0 01-.761-.599 4.509 4.509 0 01-1.082-1.7z" fill="#436b1c" transform="matrix(.51237 -.1281 .1281 .51237 292.625 123.05)"/><path d="M23.468 15.177a.995.995 0 01-.364-.069 4.908 4.908 0 01-2.781-6.35 4.91 4.91 0 016.351-2.782 1 1 0 01-.729 1.863 2.904 2.904 0 00-3.759 1.646 2.904 2.904 0 001.646 3.759.999.999 0 01.567 1.295.998.998 0 01-.931.638z" fill="#659c35" transform="matrix(.51237 -.1281 .1281 .51237 292.625 123.05)"/><path d="M49.084 25.647a4.901 4.901 0 01-1.786-.339 4.868 4.868 0 01-2.705-2.599 1 1 0 111.832-.802c.311.71.88 1.256 1.602 1.539a2.889 2.889 0 002.221-.045 2.882 2.882 0 001.538-1.602 2.878 2.878 0 00-.045-2.22 1 1 0 111.832-.802c.525 1.199.553 2.531.076 3.751s-1.399 2.181-2.599 2.706a4.93 4.93 0 01-1.966.413z" fill="#88c057" transform="matrix(.51237 -.1281 .1281 .51237 292.625 123.05)"/><path d="M35.391 23.175a4.904 4.904 0 01-4.275-2.489 1 1 0 111.74-.985 2.887 2.887 0 001.75 1.369c.745.206 1.529.111 2.204-.27s1.161-1.002 1.369-1.75a2.885 2.885 0 00-.27-2.204 1 1 0 111.74-.985c.645 1.14.807 2.462.456 3.724s-1.172 2.311-2.312 2.955a4.85 4.85 0 01-2.402.635zM31.881 17.778a4.875 4.875 0 01-2.128-.489 4.908 4.908 0 01-2.277-6.548 1.002 1.002 0 011.801.871 2.904 2.904 0 001.348 3.876 2.906 2.906 0 003.876-1.348 1 1 0 111.801.871 4.911 4.911 0 01-4.421 2.767zM24.279 23.391a4.909 4.909 0 01-4.49-6.868 1 1 0 111.832.801 2.906 2.906 0 001.497 3.821 2.88 2.88 0 002.221.043 2.883 2.883 0 001.601-1.54 1 1 0 011.832.801 4.859 4.859 0 01-2.703 2.601 4.883 4.883 0 01-1.79.341zM35.404 12.479a4.867 4.867 0 01-3.79-1.782 1 1 0 111.543-1.273 2.88 2.88 0 001.961 1.042 2.853 2.853 0 002.124-.65 2.906 2.906 0 00.392-4.085 1 1 0 111.543-1.273 4.908 4.908 0 01-.661 6.9 4.874 4.874 0 01-3.112 1.121z" fill="#659c35" transform="matrix(.51237 -.1281 .1281 .51237 292.625 123.05)"/><path d="M9.882 24.546a4.878 4.878 0 01-1.837-.359 4.908 4.908 0 01-2.699-6.385 1.001 1.001 0 011.854.752 2.901 2.901 0 105.378 2.182 1 1 0 011.854.752 4.914 4.914 0 01-4.55 3.058z" fill="#88c057" transform="matrix(.51237 -.1281 .1281 .51237 292.625 123.05)"/></g><g id="prefix__i"><path d="M426.694 127.832c.103-11.202-1.962-22.488-5.602-33.043-5.687-16.49-16.006-31.058-30.338-41.022a4.88 4.88 0 00-5.324-.16c-14.696 8.97-25.776 22.65-32.457 38.509-5.433 12.894-8.823 27.475-7.327 41.556 2.384 22.426 11.961 44.782 29.426 59.718 2.495 2.133 5.292 4.155 8.036 5.946a4.851 4.851 0 005.282.013 77.765 77.765 0 0011.477-9.062c16.557-15.812 26.615-39.46 26.827-62.455z" fill="#91deb6" transform="scale(.0554) rotate(45 -4000.006 3341.201)"/><path d="M426.695 127.834c-.217 22.989-10.267 46.639-26.827 62.446a77.845 77.845 0 01-11.474 9.07 4.855 4.855 0 01-5.283-.01 204.11 204.11 0 01-2.879-1.899 120.58 120.58 0 01-2.187-1.63 74.028 74.028 0 002.301-2.105c16.561-15.818 26.621-39.467 26.827-62.456.103-11.206-1.96-22.494-5.603-33.049-5.066-14.693-13.806-27.859-25.796-37.589a74.552 74.552 0 019.658-7.006 4.886 4.886 0 015.324.165c14.332 9.957 24.65 24.526 30.336 41.015 3.642 10.555 5.706 21.843 5.603 33.048z" fill="#6ed5a1" transform="scale(.0554) rotate(45 -4000.006 3341.201)"/><path d="M453.845 202.508c9.89-5.263 18.816-12.47 26.349-20.712 11.767-12.876 19.633-28.903 21.536-46.254a4.88 4.88 0 00-2.404-4.753c-14.903-8.622-32.214-11.818-49.338-10.108-13.922 1.39-28.351 5.38-40.005 13.424-18.56 12.811-33.622 31.908-38.395 54.387-.78 3.671-3.561 11.991 1.131 14.546a77.766 77.766 0 0013.446 5.751c21.8 6.988 47.38 4.522 67.68-6.281z" fill="#00c27a" transform="scale(.0554) rotate(45 -4000.006 3341.201)"/><path d="M501.729 135.542c-1.899 17.355-9.771 33.38-21.534 46.257-7.532 8.234-16.458 15.446-26.353 20.709-20.296 10.803-45.875 13.269-67.677 6.284a77.258 77.258 0 01-13.445-5.758 4.85 4.85 0 01-2.27-2.652c21.41 6.304 46.154 3.694 65.903-6.82 9.895-5.262 18.82-12.475 26.353-20.709 11.763-12.877 19.636-28.912 21.534-46.257a4.816 4.816 0 00-.444-2.621 77.391 77.391 0 0115.529 6.81 4.893 4.893 0 012.404 4.757z" fill="#08b865" transform="scale(.0554) rotate(45 -4000.006 3341.201)"/><path d="M318.143 202.508c-9.89-5.263-18.816-12.47-26.348-20.712-11.767-12.876-19.633-28.903-21.536-46.254a4.88 4.88 0 012.404-4.753c14.903-8.622 32.214-11.818 49.338-10.108 13.922 1.39 28.351 5.38 40.005 13.424 18.56 12.811 33.622 31.908 38.395 54.387.79 3.718 3.66 11.937-1.131 14.546a77.766 77.766 0 01-13.446 5.751c-21.801 6.988-47.381 4.522-67.681-6.281z" fill="#00c27a" transform="scale(.0554) rotate(45 -4000.006 3341.201)"/><path d="M399.269 203.034a76.303 76.303 0 01-8.936 4.158 956.39 956.39 0 00-.341-1.641c-4.767-22.483-19.832-41.572-38.394-54.388-11.649-8.048-26.074-12.031-40.004-13.424-13.672-1.372-27.467.392-40.066 5.561a74.675 74.675 0 01-1.269-7.759 4.878 4.878 0 012.404-4.757c14.9-8.616 32.214-11.814 49.332-10.102 13.93 1.383 28.355 5.376 40.014 13.424 18.552 12.805 33.617 31.904 38.394 54.387a75.382 75.382 0 011.083 6.47c.041.361.175 1.919.299 3.426a4.853 4.853 0 01-2.516 4.645z" fill="#08b865" transform="scale(.0554) rotate(45 -4000.006 3341.201)"/><path d="M106.991 180.796c-7.848-7.994-17.289-14.514-27.327-19.404-15.681-7.639-33.28-10.643-50.459-7.555a4.88 4.88 0 00-3.878 3.652c-4.049 16.734-2.211 34.242 4.279 50.18 5.276 12.959 13.189 25.667 24.204 34.565 17.538 14.168 40.11 23.203 63.014 21.422 3.97-.309 12.564-.143 13.65-5.206a77.796 77.796 0 001.708-14.524c.529-22.887-9.081-46.721-25.191-63.13z" fill="#91deb6" transform="scale(.0554) rotate(45 -4000.006 3341.201)"/><path d="M132.181 243.925a78.208 78.208 0 01-1.702 14.528 4.862 4.862 0 01-3.746 3.725c-1.476.31-3.013.629-3.374.691a89.85 89.85 0 01-3.704.516c.083-1.145.134-2.301.165-3.457.526-22.886-9.08-46.721-25.197-63.137-7.842-7.986-17.283-14.507-27.323-19.398-13.672-6.655-28.788-9.802-43.822-8.451.32-3.838.929-7.666 1.847-11.453a4.883 4.883 0 013.88-3.653c17.18-3.085 34.783-.083 50.456 7.553 10.04 4.891 19.481 11.412 27.333 19.409 16.107 16.406 25.713 40.241 25.187 63.127z" fill="#6ed5a1" transform="scale(.0554) rotate(45 -4000.006 3341.201)"/><path d="M178.993 214.401c3.271-10.715 4.487-22.123 3.985-33.277-.784-17.425-6.555-34.32-17.478-47.935a4.88 4.88 0 00-5.061-1.661c-16.635 4.441-31.135 14.422-42.034 27.74-8.862 10.827-16.243 23.851-18.796 37.78-2.329 12.708-2.391 25.911.298 38.569 1.61 7.581 3.869 15.191 7.524 22.057 2.158 4.054 8.935 16.129 14.572 14.467a77.804 77.804 0 0013.574-5.441c20.357-10.475 36.701-30.307 43.416-52.299z" fill="#00c27a" transform="scale(.0554) rotate(45 -4000.006 3341.201)"/><path d="M178.995 214.405c-6.717 21.988-23.061 41.82-43.419 52.293a77.014 77.014 0 01-13.569 5.438 4.829 4.829 0 01-5.066-1.506 154.423 154.423 0 01-2.218-2.631c-.268-.341-.526-.691-.784-1.032.186-.083.361-.175.547-.268 20.358-10.473 36.702-30.305 43.419-52.293 3.271-10.721 4.488-22.122 3.983-33.276-.722-16.024-5.654-31.605-14.941-44.585a76.725 76.725 0 0113.496-5.015 4.875 4.875 0 015.056 1.661c10.927 13.61 16.695 30.511 17.479 47.939.505 11.152-.712 22.554-3.983 33.275z" fill="#08b865" transform="scale(.0554) rotate(45 -4000.006 3341.201)"/><path d="M83.038 310.356c-10.715 3.271-22.123 4.487-33.277 3.985-17.425-.784-34.32-6.555-47.935-17.478a4.88 4.88 0 01-1.661-5.061c4.441-16.635 14.422-31.135 27.74-42.034 10.827-8.862 23.851-16.243 37.78-18.796 22.183-4.065 46.337-1.211 65.607 11.308 2.833 1.841 5.421 3.845 7.978 6.023a4.848 4.848 0 011.508 5.062 77.804 77.804 0 01-5.441 13.574c-10.474 20.358-30.306 36.702-52.299 43.417z" fill="#00c27a" transform="scale(.0554) rotate(45 -4000.006 3341.201)"/><path d="M140.776 253.366a77.914 77.914 0 01-4.478 11.639c-.454-.31-.918-.609-1.372-.908-19.264-12.516-43.419-15.374-65.603-11.309-13.93 2.559-26.951 9.936-37.785 18.8-9.947 8.141-18.036 18.305-23.34 29.861a73.393 73.393 0 01-6.366-4.581 4.878 4.878 0 01-1.661-5.066c4.437-16.633 14.415-31.13 27.735-42.037 10.824-8.863 23.856-16.241 37.775-18.789 22.184-4.065 46.339-1.218 65.614 11.309a74.28 74.28 0 015.345 3.807c.279.217 1.486 1.228 2.631 2.208a4.855 4.855 0 011.505 5.066z" fill="#08b865" transform="scale(.0554) rotate(45 -4000.006 3341.201)"/><path d="M512 285.927c0-69.591-56.415-126.006-126.006-126.006s-126.006 56.415-126.006 126.006c0 22.353 6.163 41.721 16.016 61.508 13.841 27.793 43.935 78.43 90.431 106.253 12.014 7.189 27.028 7.227 39.058.065 27.789-16.544 50.351-41.578 68.297-68.18a331.566 331.566 0 0013.281-21.426c13.9-24.423 24.929-49.509 24.929-78.22z" fill="#e94444" transform="scale(.0554) rotate(45 -4000.006 3341.201)"/><path d="M511.996 285.931c0 28.705-11.02 53.789-24.929 78.212a324.396 324.396 0 01-13.28 21.431c-17.943 26.6-40.509 51.633-68.297 68.183-11.649 6.934-26.085 7.12-37.899.598a37.88 37.88 0 0016.468-5.231c27.787-16.54 50.353-41.572 68.297-68.173 4.705-6.965 9.121-14.126 13.28-21.431 13.899-24.423 24.929-49.507 24.929-78.212 0-56.606-37.321-104.493-88.696-120.393 62.106 7.811 110.127 60.795 110.127 125.016z" fill="#d83131" transform="scale(.0554) rotate(45 -4000.006 3341.201)"/><g fill="#cc2121"><path d="M420.104 341.775a7.5 7.5 0 01-7.5-7.5v-13.81a7.5 7.5 0 0115 0v13.81a7.5 7.5 0 01-7.5 7.5zM351.883 341.775a7.5 7.5 0 01-7.5-7.5v-13.81a7.5 7.5 0 0115 0v13.81a7.5 7.5 0 01-7.5 7.5zM385.994 288.166a7.5 7.5 0 01-7.5-7.5v-13.81a7.5 7.5 0 0115 0v13.81a7.5 7.5 0 01-7.5 7.5zM458.854 288.166a7.5 7.5 0 01-7.5-7.5v-13.81a7.5 7.5 0 0115 0v13.81a7.5 7.5 0 01-7.5 7.5zM385.994 388.329a7.5 7.5 0 01-7.5-7.5v-13.81a7.5 7.5 0 0115 0v13.81a7.5 7.5 0 01-7.5 7.5z" transform="scale(.0554) rotate(45 -4000.006 3341.201)"/></g><path d="M279.102 232.265c-49.208-49.208-128.991-49.208-178.199 0s-49.208 128.991 0 178.2c15.806 15.806 33.859 25.144 54.818 32.167 29.439 9.865 86.525 24.392 139.076 11.188 13.578-3.412 24.222-14.002 27.664-27.573 7.952-31.348 6.203-65.004.083-96.504a331.782 331.782 0 00-5.759-24.542c-7.442-27.098-17.382-52.634-37.683-72.936z" fill="#e94444" transform="scale(.0554) rotate(45 -4000.006 3341.201)"/><path d="M322.46 426.249c-3.446 13.568-14.084 24.155-27.663 27.57-8.605 2.167-17.314 3.58-26.023 4.396 1.465-.32 2.93-.66 4.396-1.032 13.579-3.415 24.217-14.002 27.663-27.57 7.955-31.347 6.201-65.005.083-96.507a326.503 326.503 0 00-5.758-24.537c-7.439-27.106-17.386-52.633-37.682-72.94-26.786-26.786-62.632-38.993-97.673-36.62 41.397-10.174 86.952.908 119.3 33.256 20.296 20.296 30.243 45.834 37.682 72.94a326.993 326.993 0 015.758 24.537c6.118 31.502 7.872 65.16-.083 96.507z" fill="#d83131" transform="scale(.0554) rotate(45 -4000.006 3341.201)"/><g fill="#cc2121"><path d="M248.309 338.932a7.474 7.474 0 01-5.303-2.197l-9.765-9.765a7.5 7.5 0 010-10.606 7.5 7.5 0 0110.606 0l9.765 9.765a7.5 7.5 0 01-5.303 12.803zM200.069 387.172a7.474 7.474 0 01-5.303-2.197l-9.765-9.766a7.5 7.5 0 010-10.606 7.5 7.5 0 0110.606 0l9.765 9.766a7.5 7.5 0 01-5.303 12.803zM186.282 325.145a7.474 7.474 0 01-5.303-2.197l-9.765-9.765a7.5 7.5 0 010-10.606 7.5 7.5 0 0110.606 0l9.765 9.765a7.5 7.5 0 01-5.303 12.803zM237.802 273.625a7.474 7.474 0 01-5.303-2.197l-9.765-9.765a7.5 7.5 0 010-10.606 7.5 7.5 0 0110.606 0l9.765 9.765a7.5 7.5 0 01-5.303 12.803zM134.762 376.665a7.474 7.474 0 01-5.303-2.197l-9.765-9.765a7.5 7.5 0 010-10.606 7.5 7.5 0 0110.606 0l9.765 9.765a7.5 7.5 0 01-5.303 12.803zM257.108 395.971a7.474 7.474 0 01-5.303-2.197l-9.765-9.766a7.5 7.5 0 010-10.606 7.498 7.498 0 0110.606 0l9.765 9.766a7.5 7.5 0 01-5.303 12.803z" transform="scale(.0554) rotate(45 -4000.006 3341.201)"/></g></g><g transform="matrix(.4273 -.22789 .22789 .4273 118.584 155.177)" id="prefix__k"><path d="M39.685 2.953c-7.524 0-13.623 6.099-13.623 13.623 0 2.243.552 4.353 1.512 6.219a13.556 13.556 0 014.804-.888c5.281 0 9.851 3.011 12.111 7.404 5.15-1.944 8.819-6.905 8.819-12.735 0-7.524-6.1-13.623-13.623-13.623z" fill="#003879"/><path d="M18.754 35.53c0-5.652 3.443-10.499 8.345-12.561-.927-6.622-6.598-11.723-13.475-11.723C6.099 11.245 0 17.344 0 24.868s6.099 13.623 13.623 13.623c1.872 0 3.655-.379 5.279-1.062a13.514 13.514 0 01-.148-1.899z" fill="#1a49c1"/><circle cx="32" cy="35" r="14" fill="#415cce"/><path d="M28.103 32.153a.999.999 0 01-.57-1.823l2.841-1.964a3.053 3.053 0 013.704.186l2.165 1.839a1 1 0 01-1.295 1.525l-2.165-1.839a1.06 1.06 0 00-1.272-.064l-2.841 1.964a1.005 1.005 0 01-.567.176zM28.606 28.597h-2.355a1 1 0 010-2h2.355c.48 0 .81-.283.839-.398l.45-1.788a1 1 0 011.94.488l-.45 1.788c-.276 1.089-1.47 1.91-2.779 1.91zM37.842 28.597a.897.897 0 01-.089-.004l-2.894-.256c-1.329-.118-2.405-1.042-2.502-2.149l-.126-1.446a1 1 0 01.909-1.083.985.985 0 011.083.909l.126 1.445c.025.069.27.294.686.331l2.895.256a1 1 0 01-.088 1.997zM9.262 21.651a.999.999 0 01-.57-1.823l2.841-1.964a3.054 3.054 0 013.704.186l2.165 1.838a1 1 0 01-1.295 1.525l-2.166-1.839a1.059 1.059 0 00-1.271-.064l-2.84 1.964a1.004 1.004 0 01-.568.177zM9.765 18.095H7.41a1 1 0 010-2h2.355c.48 0 .81-.283.839-.398l.45-1.788a1 1 0 011.94.488l-.45 1.788c-.275 1.089-1.47 1.91-2.779 1.91zM19.001 18.095a.897.897 0 01-.089-.004l-2.894-.256c-1.329-.118-2.405-1.042-2.502-2.149l-.126-1.445a1 1 0 01.909-1.083.985.985 0 011.083.909l.126 1.445c.025.069.27.295.686.332l2.895.256a1 1 0 01-.088 1.995z" fill="#121c60"/><path d="M35.262 13.153a.999.999 0 01-.57-1.823l2.841-1.964a3.053 3.053 0 013.704.186l2.165 1.838a1 1 0 01-1.295 1.525l-2.166-1.839a1.06 1.06 0 00-1.271-.064l-2.841 1.964a.999.999 0 01-.567.177zM35.765 9.597H33.41a1 1 0 010-2h2.355c.48 0 .81-.283.839-.398l.45-1.788a1 1 0 111.94.488l-.45 1.788c-.275 1.089-1.47 1.91-2.779 1.91zM45.001 9.597a.897.897 0 01-.089-.004l-2.894-.256c-1.329-.118-2.405-1.042-2.502-2.149l-.126-1.445a1 1 0 01.909-1.083.986.986 0 011.083.909l.126 1.445c.025.069.27.295.686.332l2.895.256a1 1 0 01-.088 1.995z" fill="#0a1135"/><path d="M7.022 32.153a.986.986 0 01-.512-.142c-4.247-2.539-3.635-9.125-3.607-9.404.056-.549.55-.942 1.094-.895a1 1 0 01.896 1.093c-.005.056-.51 5.604 2.643 7.489a1 1 0 01-.514 1.859z" fill="#3265d6"/><path d="M24.35 43.307a.983.983 0 01-.512-.142c-4.247-2.539-3.635-9.125-3.607-9.404.056-.549.55-.944 1.094-.895a1 1 0 01.896 1.093c-.005.056-.51 5.604 2.643 7.489a1 1 0 01-.514 1.859z" fill="#447ce0"/><path d="M29.743 20.366a.997.997 0 01-.834-.448c-2.733-4.125.665-9.8.811-10.04a1 1 0 011.708 1.04c-.029.048-2.881 4.833-.853 7.896a1 1 0 01-.832 1.552z" fill="#1951a3"/></g><g id="prefix__m"><path d="M246.316.504C191.898.102 144.652 31 121.516 76.266c-19.934 39.011-43.797 75.93-72.97 108.613C24.122 212.242 1.02 252.766.052 308.613.016 309.824 0 311.035 0 312.25c0 75.07 60.86 135.93 135.93 135.93.144 0 .285-.004.43-.004a161.34 161.34 0 003.077-.04c135.47-1.878 244.711-112.261 244.711-248.175v-58.832c0-76.582-61.253-140.059-137.832-140.625zm0 0" fill="#f0a65f" transform="matrix(.05138 .0057 -.0057 .05138 220.18 186.29)"/><path d="M384.148 199.96V141.13c0-46.863-22.941-88.816-58.293-114.45v-.003c16.985 23.386 27 52.199 27 83.156v14.285c0 25.188-18.144 46.676-42.953 51.012-12.953 2.266-25.652 3.742-38.234 4.457-40.82 2.316-77.906 18.508-107.258 46.828-.785.746-1.562 1.504-2.332 2.274-23.758 23.753-36.84 55.34-36.84 88.937 0 19.676 5.598 37.508 12.598 52.113 10.402 21.711-5.027 47.032-29.102 47.102h-.59c-36.859 0-60.398-9.387-82.699-25.399 24.668 34.356 64.961 56.739 110.485 56.739 135.254-.66 248.218-112.473 248.218-248.22zm0 0" fill="#e28540" transform="matrix(.05138 .0057 -.0057 .05138 220.18 186.29)"/><path d="M312.195 202.91a7.81 7.81 0 01-7.347-5.176c-.278-.75-6.102-15.949-24.364-22.32a7.807 7.807 0 01-4.796-9.941c1.417-4.067 5.87-6.223 9.94-4.797 25.626 8.937 33.602 30.906 33.93 31.84a7.804 7.804 0 01-4.777 9.949 7.78 7.78 0 01-2.586.445zm0 0" fill="#e28540" transform="matrix(.05138 .0057 -.0057 .05138 220.18 186.29)"/><path d="M481.512 207.68c-29.496-29.938-72.164-38.86-109.516-26.778-32.183 10.414-65.371 17.547-99.144 19.461-28.282 1.61-63.024 11.117-94.043 41.082-.68.645-1.348 1.297-2.012 1.961-40.992 40.992-40.992 107.45 0 148.442l.234.23a97.001 97.001 0 001.703 1.66c74.996 72.942 194.914 72.32 269.125-1.89l32.125-32.125c41.817-41.817 43.028-109.918 1.528-152.043zm0 0" fill="#f0a65f" transform="matrix(.05138 .0057 -.0057 .05138 220.18 186.29)"/><g fill="#e28540"><path d="M481.512 207.68a108.03 108.03 0 00-14.352-12.223c29.883 42.133 25.2 101.219-12.512 138.93l-32.125 32.125c-69.949 69.949-180.496 74.508-255.765 13.722 3.015 4.711 11.402 12.961 11.976 13.504 74.996 72.942 194.914 72.32 269.125-1.89l32.125-32.125c41.817-41.817 43.028-109.918 1.528-152.043zm0 0M153.531 43.668c.168-.012 16.942-1.129 33.239 4.71a7.804 7.804 0 009.98-4.715 7.805 7.805 0 00-4.715-9.98c-11.09-3.976-22.2-5.25-29.824-5.601a139.987 139.987 0 00-15.047 13.008c1.559 1.738 3.863 2.77 6.367 2.578zm0 0M199.813 173.77a7.807 7.807 0 01-6.415-3.344c-10.925-15.696-35.074-16.43-35.316-16.43a7.805 7.805 0 01-7.707-7.902 7.8 7.8 0 017.8-7.707h.098c1.313.015 32.293.652 47.938 23.117a7.806 7.806 0 01-1.945 10.863 7.75 7.75 0 01-4.453 1.403zm0 0M306.984 100.926a7.813 7.813 0 01-7.578-5.969c-4.281-17.668-24.363-22.113-25.215-22.297-4.207-.887-6.914-5.012-6.043-9.222a7.79 7.79 0 019.176-6.067c1.246.25 30.61 6.504 37.254 33.906a7.807 7.807 0 01-7.594 9.649zm0 0M105.102 265.348a7.803 7.803 0 01-7.532-5.778c-5.804-21.562-33.761-25.468-34.043-25.508-4.261-.558-7.285-4.464-6.738-8.73.55-4.266 4.438-7.285 8.7-6.754 1.573.195 38.605 5.18 47.156 36.934a7.81 7.81 0 01-7.543 9.836zm0 0M398.496 175.906a107.806 107.806 0 00-21.02 3.403 7.782 7.782 0 004.63 5.336c.246.101 24.671 10.246 27.449 32.25a7.808 7.808 0 008.722 6.765 7.808 7.808 0 006.766-8.722c-2.508-19.868-16.48-32.426-26.547-39.032zm0 0" transform="matrix(.05138 .0057 -.0057 .05138 220.18 186.29)"/><path d="M342.363 279.914c-4.015 0-7.43-3.082-7.765-7.156-1.664-19.969-25.356-30.88-25.59-30.988-3.922-1.77-5.684-6.383-3.926-10.31 1.758-3.925 6.352-5.694 10.285-3.944 1.32.586 32.348 14.699 34.785 43.945a7.8 7.8 0 01-7.789 8.453zm0 0M423.535 302.813a7.81 7.81 0 01-7.746-6.915c-1.57-13.636-14.602-21.035-14.73-21.109-3.754-2.086-5.133-6.824-3.067-10.586 2.067-3.762 6.762-5.164 10.535-3.117.828.445 20.254 11.203 22.77 33.023a7.81 7.81 0 01-6.86 8.649c-.3.035-.605.055-.902.055zm0 0M201.879 276.793a7.806 7.806 0 01-7.79-7.414c-.726-14.566-18.632-18.281-18.816-18.32a7.805 7.805 0 113.04-15.309c10.382 2.059 30.304 11.574 31.367 32.848.215 4.304-3.102 7.972-7.407 8.183a6.554 6.554 0 01-.394.012zm0 0M336.324 396.844a7.797 7.797 0 00-9.703-5.254 7.804 7.804 0 00-5.258 9.703c6.809 22.89-6.324 39.992-6.945 40.777a7.794 7.794 0 00-1.629 5.903c5.66-.016 11.32-.282 16.961-.793 5.004-8.348 13.484-27.114 6.574-50.336zm0 0" transform="matrix(.05138 .0057 -.0057 .05138 220.18 186.29)"/></g></g><g id="prefix__o"><path d="M18.986 38.342v-6.137c0-3.263-1.082-6.477-3.236-8.927-1.845-2.099-4.639-3.936-8.764-3.936 0 0 23-9.563 23 10v9-.337 6.658s-.536 8.572 7.024 9.843c.453.076.508.699.071.84-5.513 1.788-18.095 5.418-18.095-10.684v-6.658.338z" fill="#88c057" transform="matrix(.50408 -.14002 .14002 .50408 99.643 5.624)"/><path d="M32.446 24.544c-1.594.672-2.537 2.165-2.455 3.748.018.34.027.69.027 1.05v15.321s-.015.055-.036.147c-.03 1.093.031 8.494 6.998 9.689-.117-1.903-1.615-30.426 13.034-26.499 0 0-9.3-6.944-17.568-3.456z" fill="#659c35" transform="matrix(.50408 -.14002 .14002 .50408 99.643 5.624)"/><path d="M35.72 6.006l-.008-.021C33.418-.042 28.718 0 28.718 0s-4.701-.042-6.994 5.985l-.008.022c-.053.172-1.115 3.704-1.729 10.949-.004.05.022.091.039.136 4.373.408 8.432 2.515 9.609 8.486.37-.46.839-.84 1.401-1.094 1.841-.832 3.734-1.041 5.541-.889.302-.018.603-.026.904-.025l.238-.205V21c-.491-9.998-1.94-14.8-1.999-14.994z" fill="#f9d70b" transform="matrix(.50408 -.14002 .14002 .50408 99.643 5.624)"/><path d="M25.984 33l-.068-.002a1 1 0 01-.931-1.065c.486-7.233-3.005-7.919-3.154-7.944-.538-.093-.911-.601-.828-1.14s.574-.91 1.115-.84c.224.031 5.48.857 4.862 10.059a1 1 0 01-.996.932zM27.984 54c-.043 0-.086-.003-.129-.008-4.963-.639-6.01-4.896-5.871-7.057.036-.551.52-.948 1.063-.934a1 1 0 01.934 1.059c-.025.449-.123 4.4 4.129 4.947A1 1 0 0127.984 54z" fill="#a4e869" transform="matrix(.50408 -.14002 .14002 .50408 99.643 5.624)"/><path d="M33.981 33.999a1 1 0 01-.978-.798c-.028-.138-.674-3.399 1.186-5.238 1.117-1.104 2.801-1.418 5.007-.94a1 1 0 11-.426 1.955c-1.498-.33-2.566-.19-3.171.404-.905.89-.766 2.77-.636 3.419a1.002 1.002 0 01-.982 1.198z" fill="#88c057" transform="matrix(.50408 -.14002 .14002 .50408 99.643 5.624)"/><path d="M37.718 21.228h-2.543V18.04h2.359c-.052-.695-.107-1.367-.166-2h-2.193v-3.188h1.837a78.25 78.25 0 00-.285-2h-1.552V7.663h.959a23.884 23.884 0 00-.414-1.657l-.008-.021c-.044-.115-.093-.212-.139-.322h-.399v-.888c-1.289-2.561-3.035-3.752-4.389-4.301h-.799V.206C29.227 0 28.718 0 28.718 0s-.28-.001-.732.081v.393H26.65c-1.174.475-2.642 1.438-3.853 3.352v1.837h-.935c-.045.11-.095.208-.139.322l-.008.022c-.02.065-.184.612-.414 1.656h1.496v3.188h-2.086a72.69 72.69 0 00-.286 2h2.372v3.188H20.07c-.028.301-.057.601-.084.916-.004.05.022.091.039.136 1.687.157 3.325.572 4.771 1.359v-.41h3.188v3.188h-.101c.791 1.149 1.4 2.575 1.75 4.349.103-.129.232-.234.351-.349v-2h3.188v.559a11.157 11.157 0 012-.233v-.326h2.543v-2zm-9.732-5.188h-3.188v-3.188h3.188v3.188zm0-5.189h-3.188V7.663h3.188v3.188zm0-5.188h-3.188V2.474h3.188v3.189zm5.188 15.565h-3.188V18.04h3.188v3.188zm0-5.188h-3.188v-3.188h3.188v3.188zm0-5.189h-3.188V7.663h3.188v3.188zm0-5.188h-3.188V2.474h3.188v3.189z" fill="#f1b501" transform="matrix(.50408 -.14002 .14002 .50408 99.643 5.624)"/></g><g id="prefix__q"><path d="M51.26 299.28l-3.95 22.27-20.12 14.41c-7.4-5.47-16.06-12.13-16.19-16.5-.22-7.36 8.97-19.14 8.97-19.14 6.13-3.49 22.42-.62 31.29-1.04z" fill="#706a37" transform="rotate(-8.96 2154.503 -1830.459) scale(.05467)"/><path d="M401.391 116.429l6.7-13.51c11.16 3.95 21.6 5.06 28.3 8.58 37.83 19.8 63.86 79.77 64.55 115.63 1.77 92.26-35.53 158.02-80.89 200.07-17.22 15.96-47.86 39.58-97.27 42.67-2.42.15-5.51.49-8.83.82l10.17-26.45-15.14-18.98c9.97-13.27 23.98-28.1 34.28-42.06 25.63-22.8 47.36-54.42 61.65-98.69 11.93-36.96 17.91-104.8-7.48-140.61-4.49-6.35-13.54-12.24-21.91-21.06l23.96-2.56z" fill="#fff27d" transform="rotate(-8.96 2154.503 -1830.459) scale(.05467)"/><path d="M500.942 227.13c-.691-35.861-26.721-95.831-64.551-115.631-6.7-3.52-17.14-4.63-28.3-8.58l-6.7 13.51-1.909 3.85-.063.007c22.448 25.617 37.567 62.354 39.372 87.684 6.553 92.044-27.286 159.65-70.4 204-9.761 10.03-24.142 23.03-44.584 33.088l-9.855 25.632c3.319-.331 6.41-.671 8.83-.821 49.41-3.09 80.05-26.71 97.269-42.669 45.361-42.051 82.66-107.81 80.891-200.07z" fill="#ffe33b" transform="rotate(-8.96 2154.503 -1830.459) scale(.05467)"/><path d="M143.1 391.229l-9.76-18.16c18.84-8.86 54.85-21.82 69.33-26.78 56.09-19.21 104.56-86 118.02-142.83 3.45-14.58 7.37-27.97 21.61-69.29a20.9 20.9 0 001.01-4.62l16.16 5.25 16.04-11.96h.01c8.37 8.82 17.42 14.71 21.91 21.06 25.39 35.81 19.41 103.65 7.48 140.61-14.29 44.27-36.02 75.89-61.65 98.69-26.86 23.89-58 38.12-89.37 47.1-23.28 6.67-78.15 10.16-128.84-9.78z" fill="#fff27d" transform="rotate(-8.96 2154.503 -1830.459) scale(.05467)"/><path d="M397.431 143.9c-4.489-6.35-13.54-12.24-21.91-21.06h-.01l-10.722 8c11.83 38.109 3.027 91.233-8.821 121.959-16.735 43.405-40.194 73.764-67.055 95.1-28.15 22.356-60.035 34.828-91.857 42.045-11.822 2.684-31.505 4.131-54.426 2.054l-17.579 28.526c50.691 19.94 105.561 16.45 128.84 9.78 31.37-8.979 62.511-23.21 89.37-47.1 25.63-22.8 47.361-54.421 61.651-98.69 11.929-36.965 17.91-104.805-7.481-140.614z" fill="#f9d438" transform="rotate(-8.96 2154.503 -1830.459) scale(.05467)"/><path d="M47.311 321.549l3.95-22.27a19.553 19.553 0 002.79-.3c16.29-3.12 54.9-6.56 73.23-8.37 45.98-4.53 120.49-50.58 147.47-100.36 6.92-12.77 11.59-26.21 35.38-61.26a18.959 18.959 0 002.08-4.09l28.81 4.55 2.24.08.05.02a20.9 20.9 0 01-1.01 4.62c-14.24 41.32-18.16 54.71-21.61 69.29-13.46 56.83-61.93 123.62-118.02 142.83-14.48 4.96-50.49 17.92-69.33 26.78-4.29 2.02-13.05 3.35-20.74 5.26-20.54-4.11-51.87-15.88-78.32-37.04-1.89-1.51-4.41-3.34-7.09-5.33z" fill="#f8ee4f" transform="rotate(-8.96 2154.503 -1830.459) scale(.05467)"/><path d="M312.211 124.9c-.539 1.46-30.539 52.58-37.459 65.351-26.981 49.779-101.49 95.829-147.471 100.359-18.33 1.81-56.939 5.25-73.23 8.37a19.394 19.394 0 01-2.789.3l-3.951 22.27s52.07 12.792 92.416 2.886c44.87-11.018 120.49-50.581 147.47-100.36 6.92-12.77 44.6-96.082 44.6-96.082z" fill="#fffac1" transform="rotate(-8.96 2154.503 -1830.459) scale(.05467)"/><path d="M308.981 425.259l15.14 18.98-10.17 26.45c-9.16.92-20.05 1.81-23.08-1.34-5.11-5.3-6.23-20.19-6.23-20.19 2.45-7.5 19.62-17.63 24.34-23.9z" fill="#7f7841" transform="rotate(-8.96 2154.503 -1830.459) scale(.05467)"/><path d="M375.521 122.839h-.01l-16.04 11.96-16.16-5.25c2.01-17.99-15.16-42.52-15.16-42.52l.03-13.14s-10.81-16.21-3.57-29.37a4.32 4.32 0 013.53-1.92c0-.01.01 0 .01 0 7.16-.89 21.48 5.46 21.48 5.46.64.69 1.24 1.36 1.79 2.03 9.29 11.29 5.66 19.97 5.87 28.15.54 21.51 8.97 34.85 18.23 44.6z" fill="#706a37" transform="rotate(-8.96 2154.503 -1830.459) scale(.05467)"/><path d="M328.151 87.029s17.17 24.53 15.16 42.52l-.05-.02-2.24-.08-28.81-4.55c6.06-16.35-5.98-43.86-5.98-43.86l5.94-12.15s-6.02-17.97 4.1-28.44l11.87 2.15a4.32 4.32 0 00-3.53 1.92c-7.24 13.16 3.57 29.37 3.57 29.37z" fill="#8c8448" transform="rotate(-8.96 2154.503 -1830.459) scale(.05467)"/><path d="M143.638 397.233h-.655a6 6 0 01.237-12A150.583 150.583 0 00172.074 382a6 6 0 112.356 11.767 165.131 165.131 0 01-30.792 3.466z" fill="#ffe33b" transform="rotate(-8.96 2154.503 -1830.459) scale(.05467)"/><path d="M455.605 171.711a6 6 0 01-5.421-3.423c-16.7-35.089-31.873-43.728-49.527-45.9a6 6 0 011.469-11.91c31.592 3.893 46.976 27.608 58.894 52.656a6 6 0 01-5.415 8.58z" fill="#f9d438" transform="rotate(-8.96 2154.503 -1830.459) scale(.05467)"/><path d="M408.091 102.919l-6.7 13.51-1.91 3.85-23.96 2.56c-9.26-9.75-17.69-23.09-18.23-44.6-.21-8.18 3.42-16.86-5.87-28.15l1.17-.41c15.41 5.56 15.97 15.32 19.99 22.7 9.98 18.34 23.18 26.17 35.51 30.54z" fill="#8c8448" transform="rotate(-8.96 2154.503 -1830.459) scale(.05467)"/><path d="M112.6 378.329c7.69-1.91 16.45-3.24 20.74-5.26l9.76 18.16-18.05 29.29c-8.71-3.43-27.23-9.47-29.01-15.33-2.2-7.26 3.78-21.47 3.78-21.47 2.391-2.39 7.321-4.04 12.78-5.39z" fill="#706a37" transform="rotate(-8.96 2154.503 -1830.459) scale(.05467)"/></g><g id="prefix__s"><path d="M47.923 33.056c.388-.431.935-.702 1.587-.755a3.183 3.183 0 011.272.161c.178.054.352.127.525.206v-2.234a6.043 6.043 0 00-2.357-4.788L31.54 9.176c-.549.451-1.343.605-2.237.329-1.654-.512-2.995-2.268-2.995-3.923 0-.426.091-.801.251-1.118l-2.98-2.819C21.407-.01 18.97-.37 17.308.357L2.479 7.51C1.138 8.089.307 9.45.307 10.95v15.756a3.17 3.17 0 011.527.105c1.918.594 3.473 2.63 3.473 4.548s-1.555 2.992-3.473 2.398c-.551-.17-1.064-.469-1.527-.841v2.163a3.678 3.678 0 002.786 3.568l43.644 12.857a3.678 3.678 0 004.57-3.568v-8.341h-.001c-.939-.152-1.85-.677-2.567-1.417-.016-.016-.029-.035-.044-.052a5.653 5.653 0 01-.453-.536c-.046-.062-.081-.131-.124-.195-.1-.15-.203-.298-.287-.457-.067-.125-.115-.258-.171-.388-.045-.105-.101-.208-.138-.315a4.452 4.452 0 01-.189-.739 3.797 3.797 0 01-.05-.725c.014-.462.122-.879.307-1.233.092-.178.204-.339.333-.482z" fill="#eeaf4b" transform="matrix(.47283 -.05563 .05563 .47283 62.273 100.013)"/><path d="M50.196 32.322c.379.052.751.181 1.112.346v-2.235a3.677 3.677 0 00-2.908-3.596l-19.167-5.708c.01.103.03.206.03.308 0 1.655-1.341 2.581-2.995 2.068-1.654-.512-2.995-2.268-2.995-3.923 0-.078.017-.147.023-.222L2.244 13.091C1.073 12.866.498 11.975.373 10.965l-.065-.015v15.755a3.17 3.17 0 011.527.105c1.918.594 3.473 2.63 3.473 4.548s-1.555 2.992-3.473 2.398c-.551-.17-1.064-.469-1.527-.841v2.163a3.678 3.678 0 002.786 3.568l43.644 12.857a3.678 3.678 0 004.57-3.568v-8.341c-1.88-.304-3.649-2.115-3.975-4.099-.331-2.013.951-3.434 2.863-3.173z" fill="#fcdf76" transform="matrix(.47283 -.05563 .05563 .47283 62.273 100.013)"/><path d="M26.124 32.007c0 2.254-1.827 3.515-4.081 2.818-2.254-.698-4.081-3.09-4.081-5.344s1.827-3.515 4.081-2.818 4.081 3.09 4.081 5.344z" fill="#f4c44e" transform="matrix(.47283 -.05563 .05563 .47283 62.273 100.013)"/><path d="M22.043 26.663c-1.672-.518-3.106.047-3.736 1.292.63 1.635 2.064 3.087 3.736 3.605s3.106-.047 3.736-1.292c-.63-1.635-2.064-3.088-3.736-3.605z" fill="#eeaf4b" transform="matrix(.47283 -.05563 .05563 .47283 62.273 100.013)"/><path d="M43.021 37.539c0 1.578-1.279 2.461-2.857 1.972-1.578-.488-2.857-2.163-2.857-3.741 0-1.578 1.279-2.461 2.857-1.972 1.578.489 2.857 2.164 2.857 3.741z" fill="#f4c44e" transform="matrix(.47283 -.05563 .05563 .47283 62.273 100.013)"/><path d="M15.021 35.539c0 1.578-1.279 2.461-2.857 1.972s-2.857-2.163-2.857-3.741c0-1.578 1.279-2.461 2.857-1.972s2.857 2.164 2.857 3.741zM35.021 43.165c0 1.025-.831 1.599-1.857 1.282-1.025-.317-1.857-1.406-1.857-2.431s.831-1.599 1.857-1.282c1.026.317 1.857 1.405 1.857 2.431zM34.308 31.277c0 1.025-.831 1.599-1.857 1.282-1.025-.317-1.857-1.406-1.857-2.431s.831-1.599 1.857-1.282c1.025.317 1.857 1.405 1.857 2.431z" fill="#eeaf4b" transform="matrix(.47283 -.05563 .05563 .47283 62.273 100.013)"/><path d="M9.308 20.775c0 1.127-.914 1.758-2.04 1.409-1.127-.349-2.04-1.545-2.04-2.672s.914-1.758 2.04-1.409 2.04 1.545 2.04 2.672zM29.263 21.437c0 1.654-1.341 2.58-2.995 2.068-1.654-.512-2.995-2.268-2.995-3.923 0-1.654 1.341-2.58 2.995-2.068 1.653.512 2.995 2.268 2.995 3.923z" fill="#f4c44e" transform="matrix(.47283 -.05563 .05563 .47283 62.273 100.013)"/></g><g id="prefix__u"><path d="M90.012 97.512v60.004c0 41.406-33.606 75.007-75.012 75.007H0V187.52c0-24.602 12.004-46.208 30.605-60.008C12.004 113.71 0 92.109 0 67.508V22.5h15c41.406 0 75.012 33.605 75.012 75.012zm0 0" fill="#ffcebf" transform="matrix(.06303 0 0 .06303 120.863 281.905)"/><path d="M391.945 210.324l-11.402 33.305c-21 7.5-42.605 11.398-64.508 11.398-92.41 0-193.523-65.105-262.23-127.511C122.512 65.106 223.625 0 316.035 0c18.602 0 36.602 3.3 54.008 8.398l6.602 44.707c-11.403 23.102-16.805 48.907-15.305 74.41 1.5 29.102 11.402 57.903 30.605 82.81zm0 0" fill="#f89580" transform="matrix(.06303 0 0 .06303 120.863 281.905)"/><path d="M30.605 127.512h59.407v30.004c0 41.406-33.606 75.007-75.012 75.007H0V187.52c0-24.602 12.004-46.208 30.605-60.008zm0 0" fill="#ffa78f" transform="matrix(.06303 0 0 .06303 120.863 281.905)"/><path d="M361.34 127.512c1.5 29.105 11.402 57.906 30.605 82.812l-11.402 33.301c-21 7.504-42.605 11.402-64.508 11.402-92.41 0-193.523-65.109-262.23-127.515zm0 0" fill="#ec806b" transform="matrix(.06303 0 0 .06303 120.863 281.905)"/><path d="M370.043 7.5c-26.105 37.805-40.504 78.61-38.707 120.012 1.2 39.004 16.805 78.61 48.906 116.715 56.406-23.403 99.356-59.711 131.758-116.715C478.695 69.309 433.648 30.004 370.043 7.5zm0 0" fill="#ffcebf" transform="matrix(.06303 0 0 .06303 120.863 281.905)"/><path d="M384.734 127.496l21.301-21.305 21.3 21.305-21.3 21.3zm0 0" fill="#68544f" transform="matrix(.06303 0 0 .06303 120.863 281.905)"/><path d="M241.027 82.508c-27.601 0-47.707 22.203-63.007 45.004 15.3 22.804 35.406 45.008 63.007 45.008 27.602 0 47.707-22.204 63.004-45.008-15.297-22.801-35.402-45.004-63.004-45.004zm0 0" fill="#ffcebf" transform="matrix(.06303 0 0 .06303 120.863 281.905)"/><path d="M178.02 127.512h126.015c-15.3 22.804-35.406 45.008-63.008 45.008-27.601 0-47.707-22.204-63.007-45.008zm0 0M512 127.512c-32.406 57.008-75.352 93.312-131.758 116.715-32.101-38.106-47.707-77.711-48.906-116.715zm0 0" fill="#ffa78f" transform="matrix(.06303 0 0 .06303 120.863 281.905)"/><path d="M427.348 127.512l-21.301 21.304-21.305-21.304zm0 0" fill="#53433f" transform="matrix(.06303 0 0 .06303 120.863 281.905)"/></g><g id="prefix__w"><path d="M50.841 18.962l.012.01-.022-.015.01.005c-1.072-.759-1.505-1.993-.965-2.762-.542.772-1.858.783-2.939.025-1.081-.759-1.519-2-.977-2.772-.542.772-1.858.783-2.939.025-1.081-.759-1.518-2-.977-2.772-.5.713-1.658.769-2.684.178-1.531 1.114-3.23 2.625-5.094 4.679 0 0-8.066 7.537-19.445 9.612-1.052.192-2.096.447-3.077.873-.44.191-1.418.702-1.418.702C3.63 30.453.055 38.358 2.156 46.071c1.886 6.926 7.792 11.667 14.517 12.413 3.086.342 6.191-.331 9.001-1.651 6.256-2.938 19.014-11.419 24.29-33.11 0 0 .796-1.966 1.364-4.514a2.148 2.148 0 01-.487-.247z" fill="#583e68" transform="matrix(.37166 0 0 .37166 293.76 227.928)"/><path d="M50.555 7.66a1 1 0 110-2c1.922 0 3.506-.587 4.134-1.531.451-.679.438-1.601-.041-2.741a1 1 0 011.845-.774c.938 2.237.443 3.748-.138 4.622-1.009 1.518-3.177 2.424-5.8 2.424z" fill="#6a3311" transform="matrix(.37166 0 0 .37166 293.76 227.928)"/><path d="M39.085 10.715c-.994-.698-1.26-2.034-.593-2.984.667-.951 2.014-1.156 3.008-.458 2.134-3.042 5.978-2.773 9.16-.54 3.182 2.233 4.62 5.669 2.486 8.711.994.698 1.26 2.034.593 2.984s-1.913 1.226-2.907.529l.022.015c-1.081-.759-1.519-2-.977-2.772-.542.772-1.858.783-2.939.025-1.081-.759-1.519-2-.977-2.772-.542.772-1.858.783-2.939.025-1.081-.759-1.519-2-.977-2.772-.542.772-1.858.783-2.939.025" fill="#659c35" transform="matrix(.37166 0 0 .37166 293.76 227.928)"/><path d="M9.302 50.316c-.337 0-.667-.171-.855-.479-2.383-3.912-2.656-9.118-.711-13.588a1 1 0 111.834.796c-1.689 3.883-1.464 8.386.585 11.75a1 1 0 01-.853 1.521zM10.646 34.449a1 1 0 01-.756-1.652 11.809 11.809 0 014.462-3.228 1.001 1.001 0 01.753 1.854 9.771 9.771 0 00-3.7 2.679 1.005 1.005 0 01-.759.347z" fill="#6f58a8" transform="matrix(.37166 0 0 .37166 293.76 227.928)"/></g></defs><g fi:class="KUsePattern"><pattern id="prefix__b" width="350" height="350" patternUnits="userSpaceOnUse"><use xlink:href="#prefix__a" x="-350" y="-350"/><use xlink:href="#prefix__a" y="-350"/><use xlink:href="#prefix__a" x="350" y="-350"/><use xlink:href="#prefix__a" x="-350"/><use xlink:href="#prefix__a"/><use xlink:href="#prefix__a" x="350"/><use xlink:href="#prefix__a" x="-350" y="350"/><use xlink:href="#prefix__a" y="350"/><use xlink:href="#prefix__a" x="350" y="350"/></pattern><rect width="100%" height="100%" fill="url(#prefix__b)"/></g><g fi:class="KUsePattern"><pattern id="prefix__d" width="350" height="350" patternUnits="userSpaceOnUse"><use xlink:href="#prefix__c" x="-350" y="-350"/><use xlink:href="#prefix__c" y="-350"/><use xlink:href="#prefix__c" x="350" y="-350"/><use xlink:href="#prefix__c" x="-350"/><use xlink:href="#prefix__c"/><use xlink:href="#prefix__c" x="350"/><use xlink:href="#prefix__c" x="-350" y="350"/><use xlink:href="#prefix__c" y="350"/><use xlink:href="#prefix__c" x="350" y="350"/></pattern><rect width="100%" height="100%" fill="url(#prefix__d)"/></g><g fi:class="KUsePattern"><pattern id="prefix__f" width="350" height="350" patternUnits="userSpaceOnUse"><use xlink:href="#prefix__e" x="-350" y="-350"/><use xlink:href="#prefix__e" y="-350"/><use xlink:href="#prefix__e" x="350" y="-350"/><use xlink:href="#prefix__e" x="-350"/><use xlink:href="#prefix__e"/><use xlink:href="#prefix__e" x="350"/><use xlink:href="#prefix__e" x="-350" y="350"/><use xlink:href="#prefix__e" y="350"/><use xlink:href="#prefix__e" x="350" y="350"/></pattern><rect width="100%" height="100%" fill="url(#prefix__f)"/></g><g fi:class="KUsePattern"><pattern id="prefix__h" width="350" height="350" patternUnits="userSpaceOnUse"><use xlink:href="#prefix__g" x="-350" y="-350"/><use xlink:href="#prefix__g" y="-350"/><use xlink:href="#prefix__g" x="350" y="-350"/><use xlink:href="#prefix__g" x="-350"/><use xlink:href="#prefix__g"/><use xlink:href="#prefix__g" x="350"/><use xlink:href="#prefix__g" x="-350" y="350"/><use xlink:href="#prefix__g" y="350"/><use xlink:href="#prefix__g" x="350" y="350"/></pattern><rect width="100%" height="100%" fill="url(#prefix__h)"/></g><g fi:class="KUsePattern"><pattern id="prefix__j" width="350" height="350" patternUnits="userSpaceOnUse"><use xlink:href="#prefix__i" x="-350" y="-350"/><use xlink:href="#prefix__i" y="-350"/><use xlink:href="#prefix__i" x="350" y="-350"/><use xlink:href="#prefix__i" x="-350"/><use xlink:href="#prefix__i"/><use xlink:href="#prefix__i" x="350"/><use xlink:href="#prefix__i" x="-350" y="350"/><use xlink:href="#prefix__i" y="350"/><use xlink:href="#prefix__i" x="350" y="350"/></pattern><rect width="100%" height="100%" fill="url(#prefix__j)"/></g><g fi:class="KUsePattern"><pattern id="prefix__l" width="350" height="350" patternUnits="userSpaceOnUse"><use xlink:href="#prefix__k" x="-350" y="-350"/><use xlink:href="#prefix__k" y="-350"/><use xlink:href="#prefix__k" x="350" y="-350"/><use xlink:href="#prefix__k" x="-350"/><use xlink:href="#prefix__k"/><use xlink:href="#prefix__k" x="350"/><use xlink:href="#prefix__k" x="-350" y="350"/><use xlink:href="#prefix__k" y="350"/><use xlink:href="#prefix__k" x="350" y="350"/></pattern><rect width="100%" height="100%" fill="url(#prefix__l)"/></g><g fi:class="KUsePattern"><pattern id="prefix__n" width="350" height="350" patternUnits="userSpaceOnUse"><use xlink:href="#prefix__m" x="-350" y="-350"/><use xlink:href="#prefix__m" y="-350"/><use xlink:href="#prefix__m" x="350" y="-350"/><use xlink:href="#prefix__m" x="-350"/><use xlink:href="#prefix__m"/><use xlink:href="#prefix__m" x="350"/><use xlink:href="#prefix__m" x="-350" y="350"/><use xlink:href="#prefix__m" y="350"/><use xlink:href="#prefix__m" x="350" y="350"/></pattern><rect width="100%" height="100%" fill="url(#prefix__n)"/></g><g fi:class="KUsePattern"><pattern id="prefix__p" width="350" height="350" patternUnits="userSpaceOnUse"><use xlink:href="#prefix__o" x="-350" y="-350"/><use xlink:href="#prefix__o" y="-350"/><use xlink:href="#prefix__o" x="350" y="-350"/><use xlink:href="#prefix__o" x="-350"/><use xlink:href="#prefix__o"/><use xlink:href="#prefix__o" x="350"/><use xlink:href="#prefix__o" x="-350" y="350"/><use xlink:href="#prefix__o" y="350"/><use xlink:href="#prefix__o" x="350" y="350"/></pattern><rect width="100%" height="100%" fill="url(#prefix__p)"/></g><g fi:class="KUsePattern"><pattern id="prefix__r" width="350" height="350" patternUnits="userSpaceOnUse"><use xlink:href="#prefix__q" x="-350" y="-350"/><use xlink:href="#prefix__q" y="-350"/><use xlink:href="#prefix__q" x="350" y="-350"/><use xlink:href="#prefix__q" x="-350"/><use xlink:href="#prefix__q"/><use xlink:href="#prefix__q" x="350"/><use xlink:href="#prefix__q" x="-350" y="350"/><use xlink:href="#prefix__q" y="350"/><use xlink:href="#prefix__q" x="350" y="350"/></pattern><rect width="100%" height="100%" fill="url(#prefix__r)"/></g><g fi:class="KUsePattern"><pattern id="prefix__t" width="350" height="350" patternUnits="userSpaceOnUse"><use xlink:href="#prefix__s" x="-350" y="-350"/><use xlink:href="#prefix__s" y="-350"/><use xlink:href="#prefix__s" x="350" y="-350"/><use xlink:href="#prefix__s" x="-350"/><use xlink:href="#prefix__s"/><use xlink:href="#prefix__s" x="350"/><use xlink:href="#prefix__s" x="-350" y="350"/><use xlink:href="#prefix__s" y="350"/><use xlink:href="#prefix__s" x="350" y="350"/></pattern><rect width="100%" height="100%" fill="url(#prefix__t)"/></g><g fi:class="KUsePattern"><pattern id="prefix__v" width="350" height="350" patternUnits="userSpaceOnUse"><use xlink:href="#prefix__u" x="-350" y="-350"/><use xlink:href="#prefix__u" y="-350"/><use xlink:href="#prefix__u" x="350" y="-350"/><use xlink:href="#prefix__u" x="-350"/><use xlink:href="#prefix__u"/><use xlink:href="#prefix__u" x="350"/><use xlink:href="#prefix__u" x="-350" y="350"/><use xlink:href="#prefix__u" y="350"/><use xlink:href="#prefix__u" x="350" y="350"/></pattern><rect width="100%" height="100%" fill="url(#prefix__v)"/></g><g fi:class="KUsePattern"><pattern id="prefix__x" width="350" height="350" patternUnits="userSpaceOnUse"><use xlink:href="#prefix__w" x="-350" y="-350"/><use xlink:href="#prefix__w" y="-350"/><use xlink:href="#prefix__w" x="350" y="-350"/><use xlink:href="#prefix__w" x="-350"/><use xlink:href="#prefix__w"/><use xlink:href="#prefix__w" x="350"/><use xlink:href="#prefix__w" x="-350" y="350"/><use xlink:href="#prefix__w" y="350"/><use xlink:href="#prefix__w" x="350" y="350"/></pattern><rect width="100%" height="100%" fill="url(#prefix__x)"/></g></svg>